<svg width="16" height="16" viewBox="0 0 16 16" fill="none" xmlns="http://www.w3.org/2000/svg">
<g clip-path="url(#clip0_42003_458)">
<path d="M9.61501 7.99977C9.61501 8.31918 9.52029 8.63143 9.34283 8.89701C9.16537 9.1626 8.91315 9.3696 8.61804 9.49183C8.32294 9.61407 7.99822 9.64605 7.68494 9.58373C7.37166 9.52142 7.08389 9.3676 6.85803 9.14174C6.63217 8.91588 6.47836 8.62812 6.41604 8.31484C6.35373 8.00156 6.38571 7.67683 6.50795 7.38173C6.63018 7.08663 6.83718 6.8344 7.10276 6.65694C7.36835 6.47948 7.68059 6.38477 8.00001 6.38477C8.42813 6.38542 8.83854 6.55578 9.14126 6.85851C9.44399 7.16124 9.61436 7.57164 9.61501 7.99977Z" fill="black"/>
<path d="M9.88502 4.37012H6.11502C5.90522 4.37041 5.69754 4.41203 5.50383 4.4926C5.31012 4.57317 5.13418 4.69112 4.98607 4.8397C4.83795 4.98828 4.72056 5.16459 4.64059 5.35855C4.56063 5.55251 4.51966 5.76032 4.52002 5.97012V10.0301C4.51966 10.2399 4.56063 10.4477 4.6406 10.6417C4.72056 10.8356 4.83795 11.012 4.98607 11.1605C5.13419 11.3091 5.31013 11.4271 5.50383 11.5076C5.69754 11.5882 5.90522 11.6298 6.11502 11.6301H9.88502C10.0948 11.6298 10.3025 11.5882 10.4962 11.5076C10.6899 11.4271 10.8659 11.3091 11.014 11.1605C11.1621 11.012 11.2795 10.8356 11.3594 10.6417C11.4394 10.4477 11.4804 10.2399 11.48 10.0301V5.97012C11.4804 5.76032 11.4394 5.55251 11.3595 5.35855C11.2795 5.16459 11.1621 4.98828 11.014 4.8397C10.8659 4.69112 10.6899 4.57317 10.4962 4.4926C10.3025 4.41203 10.0948 4.37041 9.88502 4.37012ZM8.00002 10.4901C7.50755 10.4901 7.02613 10.3441 6.61665 10.0705C6.20717 9.79687 5.88802 9.40799 5.69956 8.953C5.5111 8.49801 5.46179 7.99735 5.55787 7.51434C5.65394 7.03133 5.89109 6.58765 6.23933 6.23942C6.58756 5.89119 7.03123 5.65404 7.51425 5.55796C7.99726 5.46188 8.49792 5.5112 8.9529 5.69966C9.40789 5.88812 9.79678 6.20727 10.0704 6.61675C10.344 7.02623 10.49 7.50764 10.49 8.00012C10.4883 8.65997 10.2254 9.29229 9.75877 9.75887C9.29219 10.2255 8.65987 10.4884 8.00002 10.4901ZM10.465 5.91512C10.4151 5.91514 10.3657 5.90533 10.3196 5.88624C10.2735 5.86715 10.2316 5.83917 10.1963 5.80388C10.161 5.76859 10.133 5.72669 10.1139 5.68058C10.0948 5.63447 10.085 5.58505 10.085 5.53514C10.0851 5.4855 10.095 5.43636 10.1142 5.39057C10.1334 5.34478 10.1615 5.30325 10.1968 5.26838C10.2321 5.23351 10.274 5.20598 10.3201 5.18741C10.3661 5.16883 10.4154 5.15956 10.465 5.16014C10.5144 5.15966 10.5634 5.16902 10.6091 5.1877C10.6548 5.20637 10.6964 5.23398 10.7313 5.26889C10.7662 5.30381 10.7938 5.34535 10.8125 5.39106C10.8311 5.43678 10.8405 5.48576 10.84 5.53514C10.8406 5.58478 10.8313 5.63405 10.8128 5.68009C10.7942 5.72612 10.7667 5.76802 10.7318 5.80336C10.6969 5.83869 10.6554 5.86676 10.6096 5.88594C10.5638 5.90513 10.5147 5.91504 10.465 5.91512Z" fill="black"/>
<path d="M8 0.5C6.51664 0.5 5.0666 0.939867 3.83323 1.76398C2.59986 2.58809 1.63856 3.75943 1.07091 5.12987C0.50325 6.50032 0.354725 8.00832 0.644114 9.46318C0.933503 10.918 1.64781 12.2544 2.6967 13.3033C3.7456 14.3522 5.08197 15.0665 6.53683 15.3559C7.99168 15.6453 9.49968 15.4968 10.8701 14.9291C12.2406 14.3614 13.4119 13.4001 14.236 12.1668C15.0601 10.9334 15.5 9.48336 15.5 8C15.4993 6.0111 14.7089 4.10386 13.3025 2.69749C11.8961 1.29113 9.98891 0.50072 8 0.5ZM12.35 10.03C12.3506 10.6844 12.0912 11.3122 11.629 11.7754C11.1667 12.2386 10.5394 12.4992 9.885 12.5H6.115C5.46061 12.4992 4.83331 12.2386 4.37105 11.7754C3.90879 11.3122 3.64943 10.6844 3.65 10.03V5.97C3.64943 5.31561 3.90879 4.68778 4.37105 4.22458C4.83331 3.76139 5.46061 3.50076 6.115 3.5H9.885C10.5394 3.50076 11.1667 3.76139 11.629 4.22458C12.0912 4.68778 12.3506 5.31561 12.35 5.97V10.03Z" fill="black"/>
</g>
<defs>
<clipPath id="clip0_42003_458">
<rect width="16" height="16" fill="white"/>
</clipPath>
</defs>
</svg>
