<svg width="16" height="16" viewBox="0 0 16 16" fill="none" xmlns="http://www.w3.org/2000/svg">
<g clip-path="url(#clip0_42003_463)">
<path d="M8 0.5C6.51664 0.5 5.0666 0.939867 3.83323 1.76398C2.59986 2.58809 1.63856 3.75943 1.07091 5.12987C0.50325 6.50032 0.354725 8.00832 0.644114 9.46318C0.933503 10.918 1.64781 12.2544 2.6967 13.3033C3.7456 14.3522 5.08197 15.0665 6.53683 15.3559C7.99168 15.6453 9.49968 15.4968 10.8701 14.9291C12.2406 14.3614 13.4119 13.4001 14.236 12.1668C15.0601 10.9334 15.5 9.48336 15.5 8C15.4993 6.0111 14.7089 4.10386 13.3025 2.69749C11.8961 1.29113 9.98891 0.50072 8 0.5ZM5.51 12.18C5.51069 12.2218 5.50305 12.2633 5.48752 12.3021C5.47199 12.3409 5.4489 12.3762 5.41958 12.406C5.39026 12.4358 5.3553 12.4595 5.31674 12.4756C5.27818 12.4917 5.2368 12.5 5.195 12.5H3.92C3.87794 12.5001 3.83627 12.4919 3.79739 12.4759C3.7585 12.4599 3.72318 12.4363 3.69343 12.4066C3.66369 12.3768 3.64013 12.3415 3.62409 12.3026C3.60806 12.2637 3.59987 12.2221 3.6 12.18V6.68C3.6008 6.59583 3.63492 6.51542 3.69491 6.45637C3.75489 6.39732 3.83584 6.36447 3.92 6.365H5.195C5.23642 6.36483 5.27746 6.37286 5.31575 6.38863C5.35404 6.4044 5.38884 6.4276 5.41812 6.45688C5.44741 6.48617 5.4706 6.52096 5.48637 6.55925C5.50214 6.59755 5.51017 6.63859 5.51 6.68V12.18ZM4.555 5.58C4.34931 5.58 4.14824 5.51901 3.97721 5.40473C3.80618 5.29045 3.67288 5.12803 3.59417 4.93799C3.51545 4.74796 3.49486 4.53885 3.53499 4.33711C3.57512 4.13537 3.67417 3.95006 3.81961 3.80461C3.96506 3.65916 4.15037 3.56011 4.35211 3.51998C4.55385 3.47985 4.76296 3.50045 4.95299 3.57917C5.14303 3.65788 5.30545 3.79118 5.41973 3.96221C5.53401 4.13323 5.595 4.33431 5.595 4.54C5.59437 4.81563 5.4846 5.07979 5.2897 5.2747C5.0948 5.4696 4.83063 5.57937 4.555 5.58ZM12.485 12.03C12.4842 12.1142 12.4501 12.1946 12.3901 12.2536C12.3301 12.3127 12.2492 12.3455 12.165 12.345H10.945C10.9032 12.3457 10.8617 12.338 10.8229 12.3225C10.7841 12.307 10.7488 12.2839 10.719 12.2546C10.6892 12.2253 10.6655 12.1903 10.6494 12.1517C10.6333 12.1132 10.625 12.0718 10.625 12.03V8.88C10.625 8.6055 10.516 8.34225 10.3219 8.14814C10.1278 7.95404 9.8645 7.845 9.59 7.845C9.31551 7.845 9.05225 7.95404 8.85815 8.14814C8.66405 8.34225 8.555 8.6055 8.555 8.88V12.03C8.55518 12.0714 8.54715 12.1125 8.53138 12.1508C8.51561 12.189 8.49241 12.2238 8.46313 12.2531C8.43384 12.2824 8.39905 12.3056 8.36075 12.3214C8.32246 12.3371 8.28142 12.3452 8.24 12.345H6.965C6.92359 12.3452 6.88255 12.3371 6.84426 12.3214C6.80596 12.3056 6.77117 12.2824 6.74188 12.2531C6.7126 12.2238 6.6894 12.189 6.67363 12.1507C6.65786 12.1125 6.64983 12.0714 6.65 12.03V6.68C6.64983 6.63859 6.65786 6.59755 6.67363 6.55925C6.6894 6.52096 6.7126 6.48617 6.74188 6.45688C6.77117 6.4276 6.80596 6.4044 6.84426 6.38863C6.88255 6.37286 6.92359 6.36483 6.965 6.365H8.225C8.26679 6.36431 8.3083 6.37196 8.34711 6.38748C8.38592 6.40301 8.42124 6.42611 8.45103 6.45543C8.48082 6.48475 8.50447 6.51971 8.5206 6.55826C8.53673 6.59682 8.54503 6.6382 8.545 6.68V7.15L8.79 6.865C8.94879 6.67959 9.1459 6.53083 9.36775 6.42897C9.58959 6.32711 9.83089 6.27458 10.075 6.275H10.375C10.6518 6.27449 10.926 6.32856 11.1819 6.4341C11.4378 6.53964 11.6704 6.6946 11.8664 6.8901C12.0623 7.08561 12.2178 7.31782 12.324 7.57347C12.4301 7.82912 12.4849 8.10319 12.485 8.38V12.03Z" fill="black"/>
</g>
<defs>
<clipPath id="clip0_42003_463">
<rect width="16" height="16" fill="white"/>
</clipPath>
</defs>
</svg>
