<svg width="24" height="24" viewBox="0 0 24 24" fill="#000" xmlns="http://www.w3.org/2000/svg">
<path d="M21.7972 16.9891C18.931 16.5169 17.6462 13.5876 17.5932 13.4632L17.5877 13.4515C17.5063 13.3184 17.4549 13.1691 17.4373 13.014C17.4196 12.859 17.4361 12.702 17.4855 12.5539C17.678 12.1003 18.3148 11.8982 18.7368 11.7643C18.8422 11.7309 18.9418 11.6993 19.02 11.6683C19.7827 11.367 19.9378 11.0551 19.934 10.8464C19.914 10.7162 19.8556 10.5949 19.7663 10.4981C19.677 10.4013 19.5609 10.3333 19.4327 10.3028L19.427 10.3007C19.3138 10.2551 19.1928 10.232 19.0707 10.2324C18.9632 10.2306 18.8565 10.2517 18.7578 10.2945C18.46 10.4451 18.1354 10.5355 17.8026 10.5606C17.6108 10.5652 17.4234 10.5025 17.273 10.3834C17.2822 10.2134 17.293 10.0381 17.3048 9.8529L17.3088 9.7876C17.5011 8.44027 17.4192 7.06798 17.0679 5.75311C16.6538 4.80905 15.9708 4.00787 15.1041 3.44956C14.2375 2.89125 13.2256 2.60054 12.1948 2.61371C12.0607 2.61511 11.9266 2.61637 11.7924 2.61749C10.7631 2.60477 9.75281 2.89555 8.88772 3.45352C8.02264 4.01148 7.34108 4.81191 6.92815 5.75487C6.5769 7.06857 6.49484 8.43972 6.68688 9.78594C6.69982 9.98509 6.71182 10.1843 6.72288 10.3836C6.55716 10.5135 6.34907 10.5771 6.13908 10.5621C5.78573 10.5469 5.43982 10.4556 5.12508 10.2943C5.04789 10.2602 4.96414 10.2435 4.87978 10.2453C4.70599 10.2385 4.53441 10.2862 4.38906 10.3817C4.24371 10.4772 4.13186 10.6158 4.06917 10.778C3.98726 11.2086 4.60207 11.5206 4.97585 11.6682C5.05485 11.6996 5.15407 11.731 5.25893 11.7642C5.68062 11.8981 6.31801 12.1003 6.51045 12.554C6.55981 12.7021 6.57624 12.8592 6.55858 13.0143C6.54093 13.1693 6.48961 13.3187 6.40822 13.4519L6.40285 13.4634C6.12652 14.065 5.76658 14.6246 5.3337 15.1255C4.54715 16.1039 3.43409 16.7657 2.19887 16.9894C2.14049 16.999 2.08773 17.0299 2.05073 17.076C2.01373 17.1222 1.9951 17.1804 1.99843 17.2395C2.00105 17.2842 2.01154 17.3281 2.02943 17.3691C2.20521 17.7802 3.08765 18.1197 4.58125 18.3501C4.72089 18.3717 4.77998 18.5994 4.86152 18.9723C4.89411 19.1216 4.92786 19.2766 4.97492 19.4366C4.99028 19.5075 5.03146 19.5702 5.09045 19.6124C5.14944 19.6547 5.22203 19.6736 5.29414 19.6653C5.43727 19.6573 5.57944 19.6369 5.71906 19.6044C6.08721 19.5241 6.46262 19.4816 6.83942 19.4776C7.1101 19.4783 7.38027 19.5011 7.64722 19.5459C8.21124 19.6888 8.73587 19.9568 9.18222 20.3301C9.93553 20.9734 10.8822 21.3465 11.8719 21.3902C11.9057 21.3902 11.9394 21.3889 11.972 21.3862C12.0131 21.3881 12.0672 21.3902 12.1239 21.3902C13.1141 21.3463 14.0613 20.9729 14.8151 20.3294C15.2611 19.9565 15.7852 19.6888 16.3487 19.546C16.6157 19.5013 16.8859 19.4785 17.1567 19.4777C17.5332 19.4795 17.9085 19.5193 18.277 19.5965C18.4168 19.627 18.559 19.645 18.702 19.6502H18.7254C18.7931 19.6556 18.8605 19.6362 18.9149 19.5955C18.9693 19.5548 19.007 19.4957 19.0209 19.4292C19.0673 19.2713 19.1013 19.1212 19.1348 18.9679C19.2156 18.5969 19.2747 18.3703 19.4149 18.3486C20.9089 18.1178 21.7913 17.7788 21.9659 17.37C21.984 17.3286 21.9948 17.2843 21.9976 17.2392C22.0009 17.1801 21.9822 17.1219 21.9452 17.0758C21.9082 17.0296 21.8555 16.9988 21.7972 16.9891Z" fill="#000"/>
</svg>
