<svg width="16" height="16" viewBox="0 0 16 16" fill="none" xmlns="http://www.w3.org/2000/svg">
<g clip-path="url(#clip0_42003_455)">
<path d="M8 0C6.41775 0 4.87103 0.469192 3.55544 1.34824C2.23985 2.22729 1.21447 3.47672 0.608967 4.93853C0.00346627 6.40034 -0.15496 8.00887 0.153721 9.56072C0.462403 11.1126 1.22433 12.538 2.34315 13.6569C3.46197 14.7757 4.88743 15.5376 6.43928 15.8463C7.99113 16.155 9.59966 15.9965 11.0615 15.391C12.5233 14.7855 13.7727 13.7602 14.6518 12.4446C15.5308 11.129 16 9.58225 16 8C15.9979 5.87892 15.1543 3.84532 13.6545 2.34548C12.1547 0.845653 10.1211 0.00211791 8 0ZM12.7512 6.1704V6.6872C12.7512 6.72675 12.7433 6.76591 12.7279 6.80235C12.7126 6.83879 12.69 6.87179 12.6617 6.89938C12.6334 6.92697 12.5998 6.94861 12.5629 6.963C12.5261 6.9774 12.4867 6.98427 12.4472 6.9832C11.6025 6.92352 10.7944 6.61509 10.1248 6.0968V9.8792C10.1246 10.2978 10.041 10.7122 9.87896 11.0982C9.71688 11.4841 9.47955 11.834 9.1808 12.1272C8.87961 12.4281 8.52139 12.6659 8.12714 12.8266C7.73289 12.9873 7.31053 13.0678 6.8848 13.0632C6.0287 13.062 5.207 12.726 4.5952 12.1272C4.20592 11.7347 3.92552 11.2477 3.7816 10.7139C3.63768 10.1802 3.6352 9.61818 3.7744 9.0832C3.9016 8.5696 4.1584 8.0976 4.5208 7.7128C4.79107 7.38247 5.13174 7.11672 5.51792 6.93498C5.90409 6.75324 6.32601 6.66011 6.7528 6.6624H7.4088V8.0248C7.40909 8.06437 7.40094 8.10354 7.3849 8.13971C7.36886 8.17588 7.34529 8.20822 7.31577 8.23456C7.28624 8.2609 7.25144 8.28065 7.21368 8.29249C7.17593 8.30432 7.13608 8.30797 7.0968 8.3032C6.71592 8.18879 6.30549 8.22674 5.95203 8.40904C5.59858 8.59135 5.32971 8.90376 5.20212 9.28044C5.07452 9.65711 5.09815 10.0686 5.26804 10.4282C5.43793 10.7878 5.7408 11.0674 6.1128 11.208C6.3288 11.332 6.5704 11.4048 6.8184 11.4216C7.0104 11.4296 7.2024 11.4056 7.3848 11.348C7.6893 11.2453 7.95416 11.0501 8.14245 10.7897C8.33074 10.5292 8.43308 10.2166 8.4352 9.8952V3.0032C8.4352 2.92696 8.46544 2.85382 8.51927 2.79983C8.57311 2.74585 8.64616 2.71541 8.7224 2.7152H9.8544C9.92795 2.71529 9.99868 2.74352 10.0521 2.79409C10.1055 2.84467 10.1375 2.91376 10.1416 2.9872C10.1829 3.34018 10.295 3.6812 10.4712 3.98981C10.6474 4.29842 10.8842 4.56828 11.1672 4.7832C11.5497 5.07031 12.0039 5.24637 12.48 5.292C12.5513 5.2981 12.618 5.32982 12.6677 5.3813C12.7174 5.43278 12.7468 5.50052 12.7504 5.572L12.7512 6.1704Z" fill="black"/>
</g>
<defs>
<clipPath id="clip0_42003_455">
<rect width="16" height="16" fill="white"/>
</clipPath>
</defs>
</svg>
