<svg width="20" height="20" viewBox="0 0 20 20" fill="none" xmlns="http://www.w3.org/2000/svg">
<path fill-rule="evenodd" clip-rule="evenodd" d="M10 3.33398C10.7125 3.33398 11.4434 3.35232 12.1517 3.38232L12.9884 3.42232L13.7892 3.46982L14.5392 3.52065L15.2242 3.57398C15.9677 3.63056 16.6674 3.94768 17.2 4.46949C17.7326 4.99129 18.064 5.68431 18.1359 6.42648L18.1692 6.78065L18.2317 7.53898C18.29 8.32482 18.3334 9.18148 18.3334 10.0007C18.3334 10.8198 18.29 11.6765 18.2317 12.4623L18.1692 13.2207L18.1359 13.5748C18.064 14.3171 17.7325 15.0102 17.1997 15.5321C16.6669 16.0539 15.967 16.3709 15.2234 16.4273L14.54 16.4798L13.79 16.5315L12.9884 16.579L12.1517 16.619C11.4349 16.65 10.7175 16.6661 10 16.6673C9.28254 16.6661 8.56516 16.65 7.84835 16.619L7.01169 16.579L6.21085 16.5315L5.46085 16.4798L4.77585 16.4273C4.03236 16.3707 3.33269 16.0536 2.80006 15.5318C2.26743 15.01 1.93601 14.317 1.86419 13.5748L1.83085 13.2207L1.76835 12.4623C1.70488 11.6433 1.67097 10.8222 1.66669 10.0007C1.66669 9.18148 1.71002 8.32482 1.76835 7.53898L1.83085 6.78065L1.86419 6.42648C1.93598 5.68445 2.26728 4.99153 2.79974 4.46974C3.3322 3.94795 4.03168 3.63075 4.77502 3.57398L5.45919 3.52065L6.20919 3.46982L7.01085 3.42232L7.84752 3.38232C8.56461 3.35126 9.28226 3.33514 10 3.33398ZM8.33335 7.97982V12.0215C8.33335 12.4065 8.75002 12.6465 9.08335 12.4548L12.5834 10.434C12.6595 10.3901 12.7228 10.327 12.7668 10.2509C12.8107 10.1749 12.8339 10.0885 12.8339 10.0007C12.8339 9.91277 12.8107 9.82645 12.7668 9.75037C12.7228 9.6743 12.6595 9.61116 12.5834 9.56732L9.08335 7.54732C9.00732 7.50342 8.92107 7.48032 8.83327 7.48033C8.74548 7.48034 8.65923 7.50348 8.58321 7.5474C8.5072 7.59132 8.44408 7.65448 8.40022 7.73054C8.35636 7.80659 8.3333 7.89286 8.33335 7.98065V7.97982Z" fill="black"/>
</svg>
