<svg width="1365" height="1373" viewBox="0 0 1365 1373" fill="none" xmlns="http://www.w3.org/2000/svg">
<mask id="mask0_4022_129" style="mask-type:luminance" maskUnits="userSpaceOnUse" x="143" y="0" width="1079" height="911">
<path d="M143.049 0H1221.72V910.667H143.049V0Z" fill="white"/>
</mask>
<g mask="url(#mask0_4022_129)">
<mask id="mask1_4022_129" style="mask-type:luminance" maskUnits="userSpaceOnUse" x="143" y="0" width="1079" height="911">
<path d="M676.7 228.135H695.72L686.21 0.760254L676.7 228.135ZM587.757 242.489L606.007 237.13L532.819 21.6457L587.757 242.489ZM766.085 239.422L784.335 244.781L839.267 23.9321L766.085 239.422ZM506.46 281.318L522.46 271.036L391.533 84.8957L506.46 281.318ZM848.663 275.432L864.668 285.713L979.595 89.2915L848.663 275.432ZM726.215 228.922L731.996 229.568L736.819 160.083L726.215 228.922ZM635.486 229.297L641.22 228.281L626.267 160.255L635.486 229.297ZM439.397 341.479L451.856 327.104L273.783 185.39L439.397 341.479ZM813.366 254.125L818.736 256.375L842.939 191.062L813.366 254.125ZM917.762 333.255L930.215 347.625L1095.83 191.536L917.762 333.255ZM548.543 255.213L553.757 252.625L520.246 191.568L548.543 255.213ZM889.892 302.864L894.413 306.531L936.033 250.687L889.892 302.864ZM472.418 304.578L476.694 300.625L427.335 251.479L472.418 304.578ZM392.694 541.203C392.694 615.583 420.736 683.39 466.835 734.656C428.705 687.307 405.887 627.109 405.887 561.578C405.887 409 529.575 285.312 682.142 285.312C834.71 285.312 958.398 409 958.398 561.578C958.398 627.109 935.58 687.307 897.455 734.656C943.554 683.39 971.59 615.583 971.59 541.203C971.59 381.333 842.002 251.745 682.142 251.745C522.288 251.745 392.694 381.333 392.694 541.203ZM392.002 418.099L399.903 400.797L189.121 314.989L392.002 418.099ZM967.762 408.193L975.663 425.495L1178.54 322.39L967.762 408.193ZM949.59 371.187L952.887 375.979L1008.56 334.12L949.59 371.187ZM413.288 373.385L416.272 368.39L355.075 335.14L413.288 373.385ZM650.267 408.469V807.849C660.871 807.542 671.496 807.38 682.158 807.38C692.804 807.38 703.429 807.542 714.023 807.849V341.765L650.267 408.469ZM987.616 453.557L989.434 459.088L1054.64 434.609L987.616 453.557ZM375.934 456.068L377.397 450.432L309.304 435.771L375.934 456.068ZM744.637 809.182C763.705 810.276 782.694 811.885 801.58 813.995V511.937L744.637 452.364V809.182ZM368.111 504.969L370.814 486.14L144.397 463.193L368.111 504.969ZM994.632 494.187L997.335 513.015L1221.05 471.245L994.632 494.187ZM562.71 578.12V813.995C581.59 811.885 600.585 810.276 619.653 809.182V518.547L562.71 578.12ZM293.741 545.224L363.392 545.927L363.205 540.104L293.741 545.224ZM1001.08 549.13L1070.55 544.01L1000.9 543.312L1001.08 549.13ZM143.241 617.989L369.658 595.047L366.95 576.219L143.241 617.989ZM832.043 817.859C849.09 820.255 866.043 823.083 882.913 826.318V633.734L832.043 580.515V817.859ZM993.47 603.094L1219.89 626.042L996.179 584.271L993.47 603.094ZM309.642 654.625L376.674 635.672L374.856 630.146L309.642 654.625ZM986.892 638.802L1054.99 653.463L988.356 633.167L986.892 638.802ZM481.377 696.958V826.318C498.231 823.083 515.2 820.255 532.241 817.859V643.739L481.377 696.958ZM185.741 766.844L396.522 681.042L388.621 663.739L185.741 766.844ZM964.387 688.437L1175.17 774.245L972.288 671.135L964.387 688.437ZM272.569 910.015C403.663 877.177 540.877 859.745 682.158 859.745C823.424 859.745 960.622 877.177 1091.72 910.015C966.033 856.12 827.58 826.265 682.158 826.265C536.72 826.265 398.267 856.12 272.569 910.015Z" fill="white"/>
</mask>
<g mask="url(#mask1_4022_129)">
<path d="M1221.05 0.760254H143.241V910.015H1221.05V0.760254Z" fill="url(#paint0_linear_4022_129)"/>
</g>
</g>
<path d="M63.6875 1111.48C58.1042 1109.67 54.3333 1107.83 49.9167 1105.1V1104.21C65.25 1103.81 79.0208 1095.5 79.0208 1079.5C79.0208 1063.92 66.6667 1055.85 47.0417 1055.85H0V1057.02L11.0417 1062.35V1140.21L0 1145.67V1146.83H36V1145.67L24.9583 1140.21V1105.1H44.8333L70.1875 1146.83H87.6042V1145.4L81.625 1139.94L63.6875 1111.48ZM24.9583 1102.13V1058.83H42.375C55.1042 1058.83 64.7292 1065.85 64.7292 1080.42C64.7292 1094.58 56.4167 1102.13 42.7708 1102.13H24.9583Z" fill="black"/>
<path d="M163.765 1143.85H127.515V1100.96H144.807L157.411 1108.1H158.577V1090.81H157.411L144.807 1097.96H127.515V1058.83H162.598L176.119 1079.25H177.286V1055.85H102.557V1057.02L113.598 1062.35V1140.21L102.557 1145.67V1146.83H178.077L181.057 1120.31H179.89L163.765 1143.85Z" fill="black"/>
<path d="M243.841 1055.85H229.279V1057.02L232.924 1064.29L203.945 1136.96L192.633 1145.67V1146.83H222.404V1145.67L207.195 1137.35L216.674 1113.56H252.82L263.591 1140.33L252.299 1145.67V1146.83H287.779V1145.67L277.904 1139.94L243.841 1055.85ZM234.612 1068.33L251.633 1110.56H217.841L234.612 1068.33Z" fill="black"/>
<path d="M369.406 1146.83L372.906 1119.15H371.739L354.072 1143.85H321.968V1062.35L333.01 1057.02V1055.85H297.01V1057.02L308.051 1062.35V1140.21L297.01 1145.67V1146.83H369.406Z" fill="black"/>
<path d="M449.856 1143.85H413.606V1100.96H430.897L443.502 1108.1H444.668V1090.81H443.502L430.897 1097.96H413.606V1058.83H448.689L462.21 1079.25H463.377V1055.85H388.647V1057.02L399.689 1062.35V1140.21L388.647 1145.67V1146.83H464.168L467.147 1120.31H465.981L449.856 1143.85Z" fill="black"/>
<path d="M489.121 1143.33C499.642 1146.96 509.267 1148.65 517.975 1148.65C539.684 1148.65 554.892 1137.73 554.892 1120.19C554.892 1108.88 548.267 1101.73 533.059 1095.63L512.517 1087.44C504.579 1084.19 500.684 1079.38 500.684 1072.75C500.684 1063.25 508.496 1057.02 520.454 1057.02C525.517 1057.02 530.579 1058.06 534.746 1060.15L548.663 1080.42H549.829V1058.31C539.684 1055.58 530.725 1054.02 522.142 1054.02C502.246 1054.02 489.121 1062.88 489.121 1077.56C489.121 1087.56 495.1 1095.5 508.35 1100.96L527.85 1108.88C537.475 1112.77 542.413 1118.23 542.413 1126.17C542.413 1137.48 532.934 1145.67 519.538 1145.67C513.954 1145.67 508.746 1144.35 504.079 1141.77L488.475 1117.33H487.309L489.121 1143.33Z" fill="black"/>
<path d="M572.7 1080.94L585.575 1058.83H605.2V1140.21L592.846 1145.67V1146.83H631.575V1145.67L619.242 1140.21L619.096 1058.83H638.867L651.721 1080.94H652.887V1055.85H571.533V1080.94H572.7Z" fill="black"/>
<path d="M705.15 1055.85H690.587V1057.02L694.233 1064.29L665.254 1136.96L653.941 1145.67V1146.83H683.712V1145.67L668.504 1137.35L677.983 1113.56H714.129L724.9 1140.33L713.608 1145.67V1146.83H749.087V1145.67L739.212 1139.94L705.15 1055.85ZM695.921 1068.33L712.941 1110.56H679.15L695.921 1068.33Z" fill="black"/>
<path d="M750.646 1080.94L763.521 1058.83H783.146V1140.21L770.792 1145.67V1146.83H809.521V1145.67L797.188 1140.21L797.042 1058.83H816.813L829.667 1080.94H830.834V1055.85H749.479V1080.94H750.646Z" fill="black"/>
<path d="M908.435 1143.85H872.185V1100.96H889.477L902.081 1108.1H903.247V1090.81H902.081L889.477 1097.96H872.185V1058.83H907.268L920.789 1079.25H921.956V1055.85H847.227V1057.02L858.268 1062.35V1140.21L847.227 1145.67V1146.83H922.747L925.727 1120.31H924.56L908.435 1143.85Z" fill="black"/>
<path d="M1064.68 1081.85V1058.19C1056.75 1056.38 1047 1054.02 1036.6 1054.02C1009.06 1054.02 987.08 1071.44 987.08 1101.73C987.08 1132.54 1007.23 1148.65 1034.66 1148.65C1045.31 1148.65 1055.18 1146.19 1063.77 1143.71L1067.29 1117.71H1066.12L1049.35 1142.29C1045.83 1144.1 1041.02 1145.67 1035.31 1145.67C1018.41 1145.67 1002.41 1130.71 1002.56 1100.17C1002.68 1072.1 1018.93 1057.02 1036.08 1057.02C1042.21 1057.02 1047 1058.71 1049.87 1060L1063.52 1081.85H1064.68Z" fill="black"/>
<path d="M1157.88 1146.83L1161.38 1119.15H1160.21L1142.55 1143.85H1110.44V1062.35L1121.48 1057.02V1055.85H1085.48V1057.02L1096.53 1062.35V1140.21L1085.48 1145.67V1146.83H1157.88Z" fill="black"/>
<path d="M1184.4 1062.35V1114.6C1184.4 1135.27 1196.63 1148.65 1220.02 1148.65C1243.54 1148.65 1255.5 1135.27 1255.5 1114.6L1255.63 1065.46L1266.94 1057.02V1055.85H1236.65V1057.02L1252.38 1065.46L1252.25 1114.6C1252.25 1130.71 1242.5 1142.94 1225.21 1142.94C1208.06 1142.94 1198.31 1130.85 1198.31 1114.73V1062.35L1209.36 1057.02V1055.85H1173.36V1057.02L1184.4 1062.35Z" fill="black"/>
<path d="M1337.51 1098.08C1349.99 1096.79 1359.61 1089.65 1359.61 1077.17C1359.61 1064.04 1347.65 1055.85 1328.68 1055.85H1281.24V1057.02L1292.28 1062.35V1140.21L1281.24 1145.67V1146.83H1329.32C1351.68 1146.83 1364.3 1137.35 1364.3 1120.96C1364.3 1106.42 1351.55 1099.77 1337.51 1099V1098.08ZM1323.86 1058.83C1336.86 1058.83 1345.45 1065.46 1345.45 1077.94C1345.45 1091.21 1337.51 1097.83 1324.01 1097.83H1306.2V1058.83H1323.86ZM1306.2 1143.85V1100.81H1323.74C1339.07 1100.81 1349.34 1107.19 1349.34 1122C1349.34 1136.04 1340.51 1143.85 1323.22 1143.85H1306.2Z" fill="black"/>
<path d="M69.2604 1295.44C73.1563 1296.78 76.6979 1297.4 79.9063 1297.4C87.9271 1297.4 93.5313 1293.38 93.5313 1286.9C93.5313 1282.73 91.0938 1280.09 85.4896 1277.84L77.9063 1274.82C74.9688 1273.61 73.5313 1271.84 73.5313 1269.38C73.5313 1265.88 76.4063 1263.59 80.8229 1263.59C82.6979 1263.59 84.5729 1263.96 86.0938 1264.73L91.2396 1272.21H91.6771V1264.07C87.9271 1263.05 84.6146 1262.48 81.4479 1262.48C74.1146 1262.48 69.2604 1265.73 69.2604 1271.17C69.2604 1274.86 71.4688 1277.78 76.3646 1279.8L83.5521 1282.73C87.1146 1284.17 88.9271 1286.17 88.9271 1289.11C88.9271 1293.28 85.4271 1296.3 80.4896 1296.3C78.4271 1296.3 76.5104 1295.82 74.7813 1294.86L69.0313 1285.84H68.5938L69.2604 1295.44Z" fill="black"/>
<path d="M113.499 1296.73V1296.3L109.415 1294.3V1265.55L113.499 1263.59V1263.15H100.207V1263.59L104.29 1265.55V1294.3L100.207 1296.3V1296.73H113.499Z" fill="black"/>
<path d="M142.619 1263.59L148.432 1266.65V1291.4L129.14 1263.15H119.724V1263.59L123.953 1265.65V1293.19L119.724 1296.3V1296.73H130.953V1296.3L125.161 1293.19V1265.98L146.078 1296.73H149.619V1266.65L153.807 1263.59V1263.15H142.619V1263.59Z" fill="black"/>
<path d="M188.243 1272.76V1264.01C185.327 1263.34 181.723 1262.48 177.889 1262.48C167.702 1262.48 159.598 1268.9 159.598 1280.09C159.598 1291.46 167.035 1297.4 177.16 1297.4C181.098 1297.4 184.743 1296.48 187.91 1295.59L189.202 1285.98H188.764L182.577 1295.05C181.285 1295.73 179.514 1296.3 177.41 1296.3C171.16 1296.3 165.264 1290.78 165.306 1279.51C165.368 1269.15 171.348 1263.59 177.681 1263.59C179.952 1263.59 181.723 1264.21 182.785 1264.69L187.806 1272.76H188.243Z" fill="black"/>
<path d="M219.006 1295.63H205.61V1279.8H211.985L216.651 1282.44H217.089V1276.05H216.651L211.985 1278.69H205.61V1264.26H218.568L223.547 1271.78H223.985V1263.15H196.401V1263.59L200.485 1265.55V1294.3L196.401 1296.3V1296.73H224.276L225.381 1286.94H224.943L219.006 1295.63Z" fill="black"/>
<path d="M1206.42 1296.84L1207.56 1287.86H1207.19L1203.33 1292.8L1184.77 1292.71C1186.02 1289.26 1189.56 1286.61 1194.71 1283.78C1200.75 1280.53 1206.13 1276.82 1206.13 1271.03C1206.13 1265.59 1201.61 1262.53 1194.79 1262.53C1191.88 1262.53 1188.52 1263.01 1184.48 1264.44L1184.63 1272.65H1185.02L1189.86 1264.73C1191.36 1263.86 1192.88 1263.59 1194.13 1263.59C1198.02 1263.59 1200.9 1266.36 1200.9 1270.67C1200.9 1274.71 1198.36 1277.59 1193.17 1281.42C1186.61 1286.28 1183.38 1290.21 1183.04 1295.05L1182.96 1296.73L1206.42 1296.84Z" fill="black"/>
<path d="M1227.47 1297.36C1235.59 1297.36 1240.57 1290.44 1240.57 1279.94C1240.57 1269.44 1235.59 1262.53 1227.47 1262.53C1219.42 1262.53 1214.42 1269.44 1214.42 1279.94C1214.42 1290.44 1219.42 1297.36 1227.47 1297.36ZM1227.47 1296.3C1222.53 1296.3 1219.8 1290.51 1219.8 1279.94C1219.8 1269.38 1222.53 1263.59 1227.47 1263.59C1232.51 1263.59 1235.15 1269.34 1235.15 1279.94C1235.15 1290.55 1232.51 1296.3 1227.47 1296.3Z" fill="black"/>
<path d="M1246.62 1266.76L1251.8 1267.17V1294.3L1246.8 1296.3V1296.73H1261.74V1296.3L1256.7 1294.3V1262.48H1256.3L1246.62 1266.36V1266.76Z" fill="black"/>
<path d="M1292 1285.76H1286.77V1277.78H1281.83V1285.76H1267.91C1273.95 1278.69 1279.72 1272.03 1285.95 1263.53V1263.15H1279.33L1265.7 1285.76V1286.76H1281.83V1294.3L1277.04 1296.3V1296.73H1291.37V1296.3L1286.77 1294.3V1286.76H1292V1285.76Z" fill="black"/>
<path d="M472.559 1299.35C472.559 1292.5 469.226 1288.41 462.351 1287.48L430.038 1283.02V1282.1C430.038 1271.87 444.705 1263.33 457.893 1263.33C462.726 1263.33 466.434 1265.21 467.559 1268.35L469.226 1268.91L471.455 1264.08C475.913 1254.79 469.038 1247.75 460.497 1247.75C446.393 1247.93 427.434 1257.96 427.434 1283.39V1299.35L469.226 1305.68C459.559 1313.66 430.413 1323.68 391.788 1323.68C355.393 1323.68 314.184 1314.77 293.559 1299L291.893 1301.04L309.726 1323.87C330.893 1336.31 362.83 1340.77 386.955 1340.77C435.059 1340.77 472.559 1323.5 472.559 1300.1V1299.35ZM368.393 1363.41L380.455 1372.14L386.038 1363.98L397.372 1372.14L405.913 1359.89L393.83 1351.35L388.268 1359.33L376.934 1351.35L368.393 1363.41Z" fill="black"/>
<path d="M502.828 1286.91C502.828 1281.91 501.349 1277.27 498.557 1273.18L490.391 1261.66H488.161L484.266 1278.93L499.87 1297.5C496.141 1309.77 482.036 1326.85 458.453 1333.16V1334.64L479.432 1343.93C492.807 1330.37 502.828 1309.39 502.828 1290.46V1286.91Z" fill="black"/>
<path d="M535.833 1311.06C540.292 1311.06 542.521 1308.64 542.521 1304.18V1292.87H526.729V1215.81H524.125L518.188 1232.52V1311.06H535.833Z" fill="black"/>
<path d="M569.083 1307.73C572.437 1309.96 575.77 1311.06 579.666 1311.06H593.604C598.249 1311.06 600.645 1308.64 600.645 1304.18V1292.87H578.374C584.687 1288.04 588.958 1280.6 588.958 1272.06C588.958 1261.48 583.02 1254.98 572.812 1254.98C553.687 1254.98 546.812 1276.89 546.812 1292.87H542.729C538.083 1292.87 535.666 1295.27 535.666 1299.91V1311.06H547.729L561.666 1302.89L569.083 1307.73ZM551.458 1233.08L563.52 1241.81L569.083 1233.62L580.416 1241.81L588.958 1229.54L576.895 1221L571.312 1229L559.999 1221L551.458 1233.08ZM562.229 1292.87L550.333 1281.35C554.979 1275.23 562.77 1270.96 569.833 1270.96C576.52 1270.96 581.354 1275.23 581.52 1286.18L562.77 1292.87H562.229Z" fill="black"/>
<path d="M626.325 1304.18C627.429 1308.64 630.221 1311.06 634.867 1311.06H644.888C649.346 1311.06 651.575 1308.83 651.575 1304.37V1292.87H627.804C631.513 1288.6 640.617 1280.79 640.617 1273.18C640.617 1267.79 636.159 1258.33 622.054 1258.33C617.034 1258.33 612.763 1259.43 609.054 1260.75L602.742 1275.96L603.284 1277.27C621.117 1277.46 622.242 1285.81 623.534 1292.87H600.513C595.867 1292.87 593.638 1295.08 593.638 1299.73V1311.06H611.659L624.284 1296.77L626.325 1304.18Z" fill="black"/>
<path d="M662.554 1219.14C656.054 1228.06 656.242 1236.23 662.908 1244.39V1292.87H651.408C646.762 1292.87 644.721 1295.08 644.721 1299.73V1311.06H670.158V1252.56V1252.75L680.179 1238.08L668.304 1228.43V1214.31H665.887L662.554 1219.14Z" fill="black"/>
<path d="M694.893 1299.73C696.184 1295.64 696.747 1291.56 696.747 1287.29V1215.81H694.33L688.205 1232.52V1313.48H690.809L694.893 1299.73Z" fill="black"/>
<path d="M897.992 1299.35C897.992 1292.5 894.659 1288.41 887.784 1287.48L855.471 1283.02V1282.1C855.471 1271.87 870.138 1263.33 883.325 1263.33C888.159 1263.33 891.867 1265.21 892.992 1268.35L894.659 1268.91L896.888 1264.08C901.346 1254.79 894.471 1247.75 885.929 1247.75C871.825 1247.93 852.867 1257.96 852.867 1283.39V1299.35L894.659 1305.68C884.992 1313.66 855.846 1323.68 817.221 1323.68C780.825 1323.68 739.617 1314.77 718.992 1299L717.325 1301.04L735.159 1323.87C756.325 1336.31 788.263 1340.77 812.388 1340.77C860.492 1340.77 897.992 1323.5 897.992 1300.1V1299.35ZM793.825 1363.41L805.888 1372.14L811.471 1363.98L822.804 1372.14L831.346 1359.89L819.263 1351.35L813.7 1359.33L802.367 1351.35L793.825 1363.41Z" fill="black"/>
<path d="M955.386 1285.06C955.386 1279.5 953.699 1274.29 950.178 1269.83L934.032 1248.66H931.428L927.72 1264.08L952.595 1292.87H912.678V1290.46L910.991 1281.73H908.595V1311.06H955.386V1285.06Z" fill="black"/>
<path d="M991.033 1311.06C995.491 1311.06 997.72 1308.64 997.72 1304.18V1292.87H981.928V1215.81H979.324L973.387 1232.52V1311.06H991.033Z" fill="black"/>
<path d="M1025.78 1311.06C1029.49 1311.06 1032.64 1308.64 1032.64 1304.18V1292.87C1018.34 1292.87 1017.24 1288.77 1017.24 1282.83V1271.14H1014.82L1011.47 1292.87H997.927C993.281 1292.87 990.864 1295.27 990.864 1299.91V1311.06H1007.57L1011.28 1296.96C1011.28 1306.23 1016.68 1311.06 1025.78 1311.06ZM1004.97 1249.41L1017.05 1257.96L1025.59 1245.71L1013.51 1237.16L1004.97 1249.41Z" fill="black"/>
<path d="M1043.66 1219.14C1037.16 1228.06 1037.35 1236.23 1044.02 1244.39V1292.87H1032.52C1027.87 1292.87 1025.83 1295.08 1025.83 1299.73V1311.06H1051.27V1252.56V1252.75L1061.29 1238.08L1049.41 1228.43V1214.31H1047L1043.66 1219.14Z" fill="black"/>
<path d="M1076 1299.73C1077.29 1295.64 1077.86 1291.56 1077.86 1287.29V1215.81H1075.44L1069.31 1232.52V1313.48H1071.92L1076 1299.73Z" fill="black"/>
<defs>
<linearGradient id="paint0_linear_4022_129" x1="682.144" y1="0.758886" x2="682.144" y2="910.013" gradientUnits="userSpaceOnUse">
<stop stop-color="#F4DA8E"/>
<stop offset="0.0625" stop-color="#F4DA8E"/>
<stop offset="0.09375" stop-color="#F4DA8E"/>
<stop offset="0.109375" stop-color="#F4DA8E"/>
<stop offset="0.113281" stop-color="#F3D98D"/>
<stop offset="0.117188" stop-color="#F3D88C"/>
<stop offset="0.121094" stop-color="#F2D88C"/>
<stop offset="0.125" stop-color="#F2D78B"/>
<stop offset="0.128906" stop-color="#F1D68A"/>
<stop offset="0.132812" stop-color="#F1D68A"/>
<stop offset="0.136719" stop-color="#F0D589"/>
<stop offset="0.140625" stop-color="#F0D488"/>
<stop offset="0.144531" stop-color="#EFD488"/>
<stop offset="0.148438" stop-color="#EFD387"/>
<stop offset="0.152344" stop-color="#EFD387"/>
<stop offset="0.15625" stop-color="#EED286"/>
<stop offset="0.160156" stop-color="#EED185"/>
<stop offset="0.164063" stop-color="#EDD185"/>
<stop offset="0.167969" stop-color="#EDD084"/>
<stop offset="0.171875" stop-color="#ECCF83"/>
<stop offset="0.175781" stop-color="#ECCF83"/>
<stop offset="0.179688" stop-color="#EBCE82"/>
<stop offset="0.183594" stop-color="#EBCE82"/>
<stop offset="0.1875" stop-color="#EACD81"/>
<stop offset="0.191406" stop-color="#EACC80"/>
<stop offset="0.195312" stop-color="#E9CC80"/>
<stop offset="0.199219" stop-color="#E9CB7F"/>
<stop offset="0.203125" stop-color="#E9CB7F"/>
<stop offset="0.207031" stop-color="#E8CA7E"/>
<stop offset="0.210938" stop-color="#E8C97D"/>
<stop offset="0.214844" stop-color="#E7C97D"/>
<stop offset="0.21875" stop-color="#E7C87C"/>
<stop offset="0.222656" stop-color="#E6C77B"/>
<stop offset="0.226562" stop-color="#E6C77B"/>
<stop offset="0.230469" stop-color="#E5C67A"/>
<stop offset="0.234375" stop-color="#E5C67A"/>
<stop offset="0.238281" stop-color="#E4C579"/>
<stop offset="0.242188" stop-color="#E4C478"/>
<stop offset="0.246094" stop-color="#E3C478"/>
<stop offset="0.25" stop-color="#E3C377"/>
<stop offset="0.253906" stop-color="#E3C276"/>
<stop offset="0.257812" stop-color="#E2C276"/>
<stop offset="0.261719" stop-color="#E2C175"/>
<stop offset="0.265625" stop-color="#E1C175"/>
<stop offset="0.269531" stop-color="#E1C074"/>
<stop offset="0.273437" stop-color="#E0BF73"/>
<stop offset="0.277344" stop-color="#E0BF73"/>
<stop offset="0.28125" stop-color="#DFBE72"/>
<stop offset="0.285156" stop-color="#DFBD71"/>
<stop offset="0.289063" stop-color="#DEBD71"/>
<stop offset="0.292969" stop-color="#DEBC70"/>
<stop offset="0.296875" stop-color="#DDBC70"/>
<stop offset="0.300781" stop-color="#DDBB6F"/>
<stop offset="0.304688" stop-color="#DDBA6E"/>
<stop offset="0.308594" stop-color="#DCBA6E"/>
<stop offset="0.3125" stop-color="#DCB96D"/>
<stop offset="0.316406" stop-color="#DBB86C"/>
<stop offset="0.320313" stop-color="#DBB86C"/>
<stop offset="0.324219" stop-color="#DAB76B"/>
<stop offset="0.328125" stop-color="#DAB76B"/>
<stop offset="0.332031" stop-color="#D9B66A"/>
<stop offset="0.335938" stop-color="#D9B569"/>
<stop offset="0.339844" stop-color="#D8B569"/>
<stop offset="0.34375" stop-color="#D8B468"/>
<stop offset="0.347656" stop-color="#D7B367"/>
<stop offset="0.351562" stop-color="#D7B367"/>
<stop offset="0.355469" stop-color="#D7B266"/>
<stop offset="0.359375" stop-color="#D6B266"/>
<stop offset="0.363281" stop-color="#D6B165"/>
<stop offset="0.367188" stop-color="#D5B064"/>
<stop offset="0.371094" stop-color="#D5B064"/>
<stop offset="0.375" stop-color="#D4AF63"/>
<stop offset="0.378906" stop-color="#D4AF63"/>
<stop offset="0.382812" stop-color="#D3AE62"/>
<stop offset="0.386719" stop-color="#D3AD61"/>
<stop offset="0.390625" stop-color="#D2AD61"/>
<stop offset="0.394531" stop-color="#D2AC60"/>
<stop offset="0.398438" stop-color="#D1AB5F"/>
<stop offset="0.402344" stop-color="#D1AB5F"/>
<stop offset="0.40625" stop-color="#D1AA5E"/>
<stop offset="0.410156" stop-color="#D0AA5E"/>
<stop offset="0.414062" stop-color="#D0A95D"/>
<stop offset="0.417969" stop-color="#CFA85C"/>
<stop offset="0.421875" stop-color="#CFA85C"/>
<stop offset="0.425781" stop-color="#CEA75B"/>
<stop offset="0.429688" stop-color="#CEA65A"/>
<stop offset="0.433594" stop-color="#CDA65A"/>
<stop offset="0.4375" stop-color="#CDA559"/>
<stop offset="0.441406" stop-color="#CCA559"/>
<stop offset="0.445312" stop-color="#CCA458"/>
<stop offset="0.449219" stop-color="#CBA357"/>
<stop offset="0.453125" stop-color="#CBA357"/>
<stop offset="0.457031" stop-color="#CBA256"/>
<stop offset="0.460937" stop-color="#CAA155"/>
<stop offset="0.464844" stop-color="#CAA155"/>
<stop offset="0.46875" stop-color="#C9A054"/>
<stop offset="0.472656" stop-color="#C9A054"/>
<stop offset="0.476562" stop-color="#C89F53"/>
<stop offset="0.480469" stop-color="#C89E52"/>
<stop offset="0.484375" stop-color="#C79E52"/>
<stop offset="0.488281" stop-color="#C79D51"/>
<stop offset="0.492187" stop-color="#C69C50"/>
<stop offset="0.496094" stop-color="#C69C50"/>
<stop offset="0.5" stop-color="#C69B4F"/>
<stop offset="0.503906" stop-color="#C59B4F"/>
<stop offset="0.507812" stop-color="#C59A4E"/>
<stop offset="0.511719" stop-color="#C4994D"/>
<stop offset="0.515625" stop-color="#C4994D"/>
<stop offset="0.519531" stop-color="#C3984C"/>
<stop offset="0.523438" stop-color="#C3974B"/>
<stop offset="0.527344" stop-color="#C2974B"/>
<stop offset="0.53125" stop-color="#C2964A"/>
<stop offset="0.535156" stop-color="#C1964A"/>
<stop offset="0.539062" stop-color="#C19549"/>
<stop offset="0.542969" stop-color="#C09448"/>
<stop offset="0.546875" stop-color="#C09448"/>
<stop offset="0.550781" stop-color="#C09347"/>
<stop offset="0.554688" stop-color="#BF9347"/>
<stop offset="0.558594" stop-color="#BF9246"/>
<stop offset="0.5625" stop-color="#BE9145"/>
<stop offset="0.566406" stop-color="#BE9145"/>
<stop offset="0.570312" stop-color="#BD9044"/>
<stop offset="0.574219" stop-color="#BD8F43"/>
<stop offset="0.578125" stop-color="#BC8F43"/>
<stop offset="0.582031" stop-color="#BC8E42"/>
<stop offset="0.585938" stop-color="#BB8E42"/>
<stop offset="0.589844" stop-color="#BB8D41"/>
<stop offset="0.59375" stop-color="#BA8C40"/>
<stop offset="0.597656" stop-color="#BA8C40"/>
<stop offset="0.601562" stop-color="#BA8B3F"/>
<stop offset="0.605469" stop-color="#B98A3E"/>
<stop offset="0.609375" stop-color="#B98A3E"/>
<stop offset="0.613281" stop-color="#B8893D"/>
<stop offset="0.617188" stop-color="#B8893D"/>
<stop offset="0.621094" stop-color="#B7883C"/>
<stop offset="0.625" stop-color="#B6883C"/>
<stop offset="0.628906" stop-color="#B6873C"/>
<stop offset="0.632812" stop-color="#B5873B"/>
<stop offset="0.636719" stop-color="#B4863B"/>
<stop offset="0.640625" stop-color="#B4863B"/>
<stop offset="0.644531" stop-color="#B3853A"/>
<stop offset="0.648438" stop-color="#B3843A"/>
<stop offset="0.652344" stop-color="#B2843A"/>
<stop offset="0.65625" stop-color="#B18339"/>
<stop offset="0.660156" stop-color="#B18339"/>
<stop offset="0.664062" stop-color="#B08239"/>
<stop offset="0.667969" stop-color="#AF8238"/>
<stop offset="0.671875" stop-color="#AF8138"/>
<stop offset="0.675781" stop-color="#AE8138"/>
<stop offset="0.679688" stop-color="#AE8037"/>
<stop offset="0.683594" stop-color="#AD8037"/>
<stop offset="0.6875" stop-color="#AC7F37"/>
<stop offset="0.691406" stop-color="#AC7F36"/>
<stop offset="0.695312" stop-color="#AB7E36"/>
<stop offset="0.699219" stop-color="#AB7E36"/>
<stop offset="0.703125" stop-color="#AA7D35"/>
<stop offset="0.707031" stop-color="#A97D35"/>
<stop offset="0.710937" stop-color="#A97C35"/>
<stop offset="0.714844" stop-color="#A87C34"/>
<stop offset="0.71875" stop-color="#A77B34"/>
<stop offset="0.722656" stop-color="#A77B34"/>
<stop offset="0.726562" stop-color="#A67A33"/>
<stop offset="0.730469" stop-color="#A67A33"/>
<stop offset="0.734375" stop-color="#A57933"/>
<stop offset="0.738281" stop-color="#A47932"/>
<stop offset="0.742188" stop-color="#A47832"/>
<stop offset="0.746094" stop-color="#A37731"/>
<stop offset="0.75" stop-color="#A27731"/>
<stop offset="0.753906" stop-color="#A27631"/>
<stop offset="0.757812" stop-color="#A17630"/>
<stop offset="0.761719" stop-color="#A17530"/>
<stop offset="0.765625" stop-color="#A07530"/>
<stop offset="0.769531" stop-color="#9F742F"/>
<stop offset="0.773438" stop-color="#9F742F"/>
<stop offset="0.777344" stop-color="#9E732F"/>
<stop offset="0.78125" stop-color="#9D732E"/>
<stop offset="0.785156" stop-color="#9D722E"/>
<stop offset="0.789063" stop-color="#9C722E"/>
<stop offset="0.792969" stop-color="#9C712D"/>
<stop offset="0.796875" stop-color="#9B712D"/>
<stop offset="0.800781" stop-color="#9A702D"/>
<stop offset="0.804688" stop-color="#9A702C"/>
<stop offset="0.808594" stop-color="#996F2C"/>
<stop offset="0.8125" stop-color="#996F2C"/>
<stop offset="0.816406" stop-color="#986E2B"/>
<stop offset="0.820313" stop-color="#976E2B"/>
<stop offset="0.824219" stop-color="#976D2B"/>
<stop offset="0.828125" stop-color="#966D2A"/>
<stop offset="0.832031" stop-color="#956C2A"/>
<stop offset="0.835938" stop-color="#956C2A"/>
<stop offset="0.839844" stop-color="#946B29"/>
<stop offset="0.84375" stop-color="#946A29"/>
<stop offset="0.847656" stop-color="#936A29"/>
<stop offset="0.851563" stop-color="#926928"/>
<stop offset="0.855469" stop-color="#926928"/>
<stop offset="0.859375" stop-color="#916828"/>
<stop offset="0.863281" stop-color="#906827"/>
<stop offset="0.867188" stop-color="#906727"/>
<stop offset="0.871094" stop-color="#8F6727"/>
<stop offset="0.875" stop-color="#8F6626"/>
<stop offset="0.878906" stop-color="#8E6626"/>
<stop offset="0.882813" stop-color="#8D6526"/>
<stop offset="0.886719" stop-color="#8D6525"/>
<stop offset="0.890625" stop-color="#8C6425"/>
<stop offset="0.894531" stop-color="#8B6425"/>
<stop offset="0.898438" stop-color="#8B6324"/>
<stop offset="0.902344" stop-color="#8A6324"/>
<stop offset="0.90625" stop-color="#8A6223"/>
<stop offset="0.910156" stop-color="#896223"/>
<stop offset="0.914062" stop-color="#886123"/>
<stop offset="0.917969" stop-color="#886122"/>
<stop offset="0.921875" stop-color="#876022"/>
<stop offset="0.925781" stop-color="#876022"/>
<stop offset="0.929688" stop-color="#865F21"/>
<stop offset="0.933594" stop-color="#855F21"/>
<stop offset="0.9375" stop-color="#855E21"/>
<stop offset="0.941406" stop-color="#845D20"/>
<stop offset="0.945312" stop-color="#835D20"/>
<stop offset="0.949219" stop-color="#835C20"/>
<stop offset="0.953125" stop-color="#825C1F"/>
<stop offset="0.957031" stop-color="#825B1F"/>
<stop offset="0.960938" stop-color="#815B1F"/>
<stop offset="0.964844" stop-color="#805A1E"/>
<stop offset="0.96875" stop-color="#805A1E"/>
<stop offset="0.972656" stop-color="#7F591E"/>
<stop offset="0.976562" stop-color="#7E591D"/>
<stop offset="0.980469" stop-color="#7E581D"/>
<stop offset="0.984375" stop-color="#7D581D"/>
<stop offset="0.988281" stop-color="#7D571C"/>
<stop offset="0.992188" stop-color="#7C571C"/>
<stop offset="0.996094" stop-color="#7B561C"/>
<stop offset="1" stop-color="#7B561B"/>
</linearGradient>
</defs>
</svg>
