<svg width="25" height="25" viewBox="0 0 25 25" fill="none" xmlns="http://www.w3.org/2000/svg">
<path d="M12.5 7.50002C16.9183 7.50002 20.5 11.0817 20.5 15.5C20.5 19.9183 16.9183 23.5 12.5 23.5C8.08172 23.5 4.5 19.9183 4.5 15.5C4.5 11.0817 8.08172 7.50002 12.5 7.50002ZM12.5 9.50002C9.18629 9.50002 6.5 12.1863 6.5 15.5C6.5 18.8137 9.18629 21.5 12.5 21.5C15.8137 21.5 18.5 18.8137 18.5 15.5C18.5 12.1863 15.8137 9.50002 12.5 9.50002ZM12.5 11L13.8225 13.6797L16.7798 14.1094L14.6399 16.1953L15.145 19.1406L12.5 17.75L9.85497 19.1406L10.3601 16.1953L8.22025 14.1094L11.1775 13.6797L12.5 11ZM18.5 2.50002V5.50002L17.1366 6.63758C16.0305 6.05773 14.8025 5.67887 13.5011 5.54951L13.5 2.49902L18.5 2.50002ZM11.5 2.49902L11.4997 5.54942C10.1984 5.67866 8.97046 6.05738 7.86441 6.63706L6.5 5.50002V2.50002L11.5 2.49902Z" fill="#fff"/>
</svg>
