<svg width="16" height="20" viewBox="0 0 16 20" fill="none" xmlns="http://www.w3.org/2000/svg">
<path fill-rule="evenodd" clip-rule="evenodd" d="M8 1.53846C6.4751 1.53846 4.42753 1.70582 2.99542 1.8447C2.40117 1.90233 1.93741 2.3731 1.89141 2.96993C1.749 4.81754 1.54839 7.81282 1.54839 10C1.54839 12.1872 1.749 15.1825 1.89141 17.0301C1.93741 17.6269 2.40117 18.0977 2.99542 18.1553C4.42753 18.2942 6.4751 18.4615 8 18.4615C9.5249 18.4615 11.5725 18.2942 13.0046 18.1553C13.5988 18.0977 14.0626 17.6269 14.1086 17.0301C14.251 15.1825 14.4516 12.1872 14.4516 10C14.4516 7.81282 14.251 4.81754 14.1086 2.96993C14.0626 2.3731 13.5988 1.90233 13.0046 1.8447C11.5725 1.70582 9.5249 1.53846 8 1.53846ZM2.84502 0.31351C4.28091 0.17427 6.3935 0 8 0C9.6065 0 11.7191 0.17427 13.155 0.31351C14.5029 0.44423 15.5495 1.51605 15.6525 2.85245C15.7949 4.70071 16 7.74813 16 10C16 12.2519 15.7949 15.2993 15.6525 17.1476C15.5495 18.484 14.5029 19.5558 13.155 19.6865C11.7191 19.8257 9.6065 20 8 20C6.3935 20 4.28091 19.8257 2.84502 19.6865C1.49709 19.5558 0.45055 18.484 0.34754 17.1476C0.20508 15.2993 0 12.2519 0 10C0 7.74813 0.20508 4.70071 0.34754 2.85245C0.45055 1.51605 1.49709 0.44423 2.84502 0.31351Z" fill="#FEFFFF"/>
<path fill-rule="evenodd" clip-rule="evenodd" d="M6.1935 15.1282C6.1935 14.7034 6.5402 14.359 6.9677 14.359H9.0323C9.4598 14.359 9.8065 14.7034 9.8065 15.1282C9.8065 15.553 9.4598 15.8974 9.0323 15.8974H6.9677C6.5402 15.8974 6.1935 15.553 6.1935 15.1282Z" fill="#FEFFFF"/>
<path d="M9.0323 4.87181C9.0323 5.43825 8.5701 5.89745 8 5.89745C7.4299 5.89745 6.9677 5.43825 6.9677 4.87181C6.9677 4.30536 7.4299 3.84616 8 3.84616C8.5701 3.84616 9.0323 4.30536 9.0323 4.87181Z" fill="#FEFFFF"/>
</svg>
