<svg width="24" height="24" viewBox="0 0 24 24" fill="none" xmlns="http://www.w3.org/2000/svg">
<path fill-rule="evenodd" clip-rule="evenodd" d="M12.889 11.6187H12.921C15.849 11.6187 18.23 9.23771 18.23 6.30971C18.23 3.38171 15.849 0.99971 12.921 0.99971C9.99202 0.99971 7.61002 3.38171 7.61002 6.30671C7.60002 9.22671 9.96702 11.6097 12.889 11.6187ZM9.03802 6.30971C9.03802 4.16871 10.78 2.42771 12.921 2.42771C15.061 2.42771 16.802 4.16871 16.802 6.30971C16.802 8.44971 15.061 10.1917 12.921 10.1917H12.892C10.76 10.1837 9.03102 8.44371 9.03802 6.30971Z" fill="#FFFFFE"/>
<path fill-rule="evenodd" clip-rule="evenodd" d="M5 17.173C5 20.87 10.962 20.87 12.921 20.87C16.32 20.87 20.84 20.489 20.84 17.193C20.84 13.496 14.88 13.496 12.921 13.496C9.521 13.496 5 13.877 5 17.173ZM6.5 17.173C6.5 15.728 8.66 14.996 12.921 14.996C17.181 14.996 19.34 15.735 19.34 17.193C19.34 18.638 17.181 19.37 12.921 19.37C8.66 19.37 6.5 18.631 6.5 17.173Z" fill="#FFFFFE"/>
</svg>
