<svg width="95" height="24" viewBox="0 0 95 24" fill="none" xmlns="http://www.w3.org/2000/svg">
<path d="M88.0744 10.6647C85.358 8.34862 82.9275 6.43284 80.3827 4.66003C79.4677 4.00238 78.7242 3.23034 78.5241 2.058C78.4097 1.34316 78.5527 0.742688 79.1245 0.256594C79.725 -0.258093 80.3255 0.113626 80.8402 0.399563C81.2977 0.628313 81.698 1.00003 82.0983 1.31457C85.7869 4.48847 89.5898 7.49081 93.4214 10.4931C95.1084 11.8085 95.1084 12.3517 93.5644 13.7242C89.9902 16.8696 86.4159 20.0149 82.8131 23.1316C82.2127 23.6463 81.555 24.5613 80.6686 23.5319C79.868 22.6169 80.4113 21.8449 81.1261 21.2158C83.4136 19.2142 85.7011 17.2127 87.9886 15.1825C88.4175 14.8108 88.8464 14.4391 89.3611 13.9816C88.6177 13.5527 87.9028 13.7528 87.2452 13.7528C64.8563 13.6385 42.4674 14.1817 20.0785 13.7814C14.6457 13.6956 9.21288 13.5241 3.83726 12.6377C3.15102 12.5233 2.43617 12.3231 1.77852 12.0944C1.29242 11.9228 0.691954 11.7227 0.89211 11.0364C1.06367 10.3788 1.60695 10.2358 2.26461 10.3502C4.23758 10.7219 6.23914 10.8077 8.2407 10.8649C24.1102 11.2938 39.9511 10.7791 55.8207 10.7219C65.7713 10.6647 75.7219 10.6933 85.6725 10.6647C86.3302 10.6361 86.9878 10.6647 88.0744 10.6647Z" fill="black"/>
</svg>
