<svg width="36" height="36" viewBox="0 0 36 36" fill="none" xmlns="http://www.w3.org/2000/svg">
<g clip-path="url(#clip0_16001_363)">
<path d="M36 18C36 27.9414 27.9412 36.0001 18.0001 36.0001C8.059 35.9999 0 27.9411 0 18C0 8.05888 8.059 0.00012207 18.0004 0.00012207C27.9412 0.00012207 36 8.05888 36 18Z" fill="#4AC8EB"/>
<mask id="mask0_16001_363" style="mask-type:luminance" maskUnits="userSpaceOnUse" x="0" y="0" width="37" height="37">
<path d="M0.00012207 18.0004C0.00012207 27.9415 8.05888 36.0002 18 36.0002C27.9414 36.0002 36.0001 27.9415 36.0001 18.0004C35.9999 8.059 27.9411 0 18 0C8.05888 0 0.00012207 8.059 0.00012207 18.0004Z" fill="white"/>
</mask>
<g mask="url(#mask0_16001_363)">
<path d="M28.4414 38.41V38.4119H7.57117V38.41C7.57117 37.2312 7.76601 36.0962 8.12797 35.04C8.19308 34.849 8.26373 34.6602 8.34041 34.4733V34.4714C8.41517 34.2845 8.49788 34.1014 8.58469 33.9206C8.9288 33.1945 9.3578 32.5159 9.85551 31.8943C9.98139 31.739 10.1092 31.5878 10.2411 31.4419C10.3062 31.3671 10.3749 31.2943 10.4439 31.2215C10.5126 31.1506 10.5814 31.0799 10.652 31.009C11.0046 30.657 11.382 30.3343 11.7796 30.0372C11.9781 29.8899 12.1787 29.752 12.3875 29.6186C12.4625 29.5713 12.537 29.5238 12.6137 29.4787C12.6472 29.4592 12.6824 29.4394 12.716 29.4199C12.8182 29.3589 12.9204 29.2998 13.0249 29.2427C13.0287 29.2388 13.0323 29.2388 13.0323 29.2388C13.1172 29.1935 13.1997 29.144 13.2824 29.0932C13.5284 28.9461 13.7642 28.7823 13.9887 28.6015C14.7104 28.0271 15.3087 27.3031 15.7377 26.4789C15.8732 26.2173 15.9933 25.9457 16.0936 25.6663C16.3435 24.9698 16.4792 24.2204 16.4792 23.4376L18.0001 23.4453H18.004L19.5642 23.4533C19.5642 24.2264 19.6958 24.9679 19.9401 25.6566C20.0385 25.9378 20.1562 26.2093 20.2922 26.471C20.719 27.2993 21.3151 28.0271 22.0371 28.6036C22.1786 28.7194 22.3224 28.826 22.4738 28.9263C22.4895 28.9381 22.5032 28.948 22.5191 28.9576C22.5898 29.0046 22.6609 29.0522 22.7354 29.0951C22.8162 29.1443 22.8987 29.1935 22.9814 29.239C22.9954 29.2429 23.007 29.2489 23.0169 29.2566C23.1092 29.308 23.2016 29.3611 23.2922 29.4158C23.3709 29.4611 23.4495 29.5086 23.5283 29.5576C23.6089 29.6068 23.6896 29.6579 23.7683 29.7148C23.9315 29.8195 24.0909 29.9333 24.246 30.0515C24.246 30.0534 24.2481 30.0534 24.2481 30.0534H24.2503C24.449 30.2007 24.6417 30.3584 24.8305 30.5198C25.0191 30.6811 25.2002 30.8501 25.3755 31.0254C27.2709 32.9133 28.4414 35.522 28.4414 38.41Z" fill="#ECC19C"/>
</g>
<mask id="mask1_16001_363" style="mask-type:luminance" maskUnits="userSpaceOnUse" x="0" y="0" width="37" height="37">
<path d="M0.00012207 18.0004C0.00012207 27.9415 8.05888 36.0002 18 36.0002C27.9414 36.0002 36.0001 27.9415 36.0001 18.0004C35.9999 8.059 27.9411 0 18 0C8.05888 0 0.00012207 8.059 0.00012207 18.0004Z" fill="white"/>
</mask>
<g mask="url(#mask1_16001_363)">
<path d="M28.4414 38.41H7.57117C7.57117 37.2313 7.76601 36.0962 8.12797 35.04C8.19308 34.849 8.26373 34.6602 8.34041 34.4733V34.4714C8.41517 34.2845 8.49788 34.1015 8.58469 33.9206C8.9288 33.1946 9.3578 32.516 9.85551 31.8943C9.98139 31.739 10.1092 31.5878 10.2411 31.4419C10.3062 31.3672 10.3749 31.2944 10.4439 31.2215C10.5126 31.1506 10.5814 31.08 10.652 31.0091C11.0046 30.657 11.382 30.3344 11.7796 30.0373C11.9781 29.8899 12.1787 29.752 12.3875 29.6187C12.4625 29.5714 12.537 29.5239 12.6137 29.4788C12.6472 29.4571 12.6803 29.4376 12.714 29.4178C12.8163 29.357 12.9204 29.2979 13.0249 29.2408C13.0287 29.2369 13.0323 29.2389 13.0323 29.2389V29.2369C13.1172 29.1897 13.1997 29.1422 13.2824 29.093C13.5284 28.9435 13.7642 28.7783 13.9846 28.5974C13.9863 28.5996 13.9863 28.5996 13.9885 28.6013C15.0075 29.644 16.4257 30.291 17.9996 30.2951H18.0151C19.589 30.2951 21.0134 29.6459 22.0364 28.6032L22.0383 28.601C22.1779 28.717 22.3236 28.8255 22.4731 28.9258C22.4888 28.9377 22.5025 28.9476 22.5184 28.9572C22.5891 29.0042 22.6621 29.0498 22.7347 29.0946C22.8155 29.1438 22.898 29.1911 22.9807 29.2367C22.9947 29.2405 23.0046 29.2485 23.0161 29.254C23.1085 29.3052 23.203 29.3587 23.2935 29.4134C23.3718 29.4607 23.4507 29.5082 23.5276 29.5572C23.6081 29.6064 23.6889 29.6575 23.7675 29.7144C23.9308 29.819 24.0902 29.9329 24.2452 30.051H24.2496C24.4483 30.2003 24.6429 30.3561 24.8298 30.5191C25.0183 30.6804 25.1994 30.8494 25.3748 31.0248C27.2709 32.9134 28.4414 35.5221 28.4414 38.41Z" fill="#7D6991"/>
</g>
<mask id="mask2_16001_363" style="mask-type:luminance" maskUnits="userSpaceOnUse" x="0" y="0" width="37" height="37">
<path d="M0.00012207 18.0004C0.00012207 27.9415 8.05888 36.0002 18 36.0002C27.9414 36.0002 36.0001 27.9415 36.0001 18.0004C35.9999 8.059 27.9411 0 18 0C8.05888 0 0.00012207 8.059 0.00012207 18.0004Z" fill="white"/>
</mask>
<g mask="url(#mask2_16001_363)">
<path d="M23.2934 29.4139L23.2912 29.4159L23.0769 29.6343C21.7272 31.0093 19.9254 31.7668 18.0032 31.7668H17.9994C16.0598 31.7607 14.2636 31.0035 12.9202 29.6305L12.7154 29.4202L12.7135 29.418C12.8157 29.357 12.9199 29.2982 13.0243 29.241C13.0282 29.2372 13.0321 29.2391 13.0321 29.2391V29.2372C13.1167 29.1899 13.1992 29.1424 13.2819 29.0932C13.5278 28.9437 13.7637 28.7785 13.9841 28.5977C13.9863 28.5996 13.9863 28.5996 13.9884 28.6013C15.0075 29.644 16.4257 30.2912 17.9996 30.2951H18.015C19.589 30.2951 21.0134 29.6459 22.0363 28.6032L22.0383 28.601C22.1779 28.717 22.3235 28.8255 22.473 28.9259C22.4887 28.9377 22.5025 28.9476 22.5184 28.9572C22.589 29.0045 22.6621 29.0498 22.7347 29.0949C22.8155 29.1438 22.8979 29.1911 22.9806 29.2367C22.9946 29.2405 23.0045 29.2485 23.0161 29.254C23.1082 29.3057 23.203 29.3589 23.2934 29.4139Z" fill="#DDE0E8"/>
</g>
<mask id="mask3_16001_363" style="mask-type:luminance" maskUnits="userSpaceOnUse" x="0" y="0" width="37" height="37">
<path d="M0.00012207 18.0004C0.00012207 27.9415 8.05888 36.0002 18 36.0002C27.9414 36.0002 36.0001 27.9415 36.0001 18.0004C35.9999 8.059 27.9411 0 18 0C8.05888 0 0.00012207 8.059 0.00012207 18.0004Z" fill="white"/>
</mask>
<g mask="url(#mask3_16001_363)">
<path d="M26.016 12.2636V17.0657C26.016 17.1523 26.014 17.2389 26.0121 17.3254C26.0099 17.3925 26.0078 17.4593 26.0041 17.5261C26.0022 17.5931 25.9981 17.658 25.9923 17.7248C25.9902 17.7701 25.9865 17.8154 25.9824 17.8605C25.9803 17.888 25.9783 17.9136 25.9747 17.9413C25.9704 17.9905 25.9668 18.0416 25.9588 18.0908C25.9549 18.1379 25.9513 18.1851 25.9434 18.2324C25.9393 18.2777 25.9335 18.3247 25.9258 18.372C25.9079 18.5138 25.8843 18.6553 25.8587 18.795C25.8414 18.8897 25.8238 18.9838 25.8037 19.0764C25.8018 19.0805 25.8018 19.0841 25.7996 19.0882C25.7975 19.1022 25.7955 19.1157 25.7919 19.1294C25.7898 19.1335 25.7898 19.1374 25.7878 19.1415C25.7878 19.1453 25.7878 19.1492 25.7859 19.1533C25.7818 19.1728 25.7779 19.1926 25.7719 19.2124C25.7678 19.2358 25.7623 19.2592 25.7562 19.283C25.7524 19.3084 25.7464 19.3322 25.7386 19.3559C25.7329 19.3911 25.723 19.4268 25.715 19.4622C25.709 19.4815 25.7051 19.5034 25.6972 19.5232C25.6933 19.5406 25.6875 19.5584 25.6834 19.5743C25.6422 19.7357 25.5949 19.8926 25.5457 20.0504C25.5221 20.1249 25.4985 20.1979 25.4729 20.2727C25.471 20.2804 25.4671 20.2884 25.4652 20.2966C25.4415 20.3631 25.4179 20.4302 25.3943 20.497C25.3866 20.5165 25.3789 20.5363 25.3707 20.5582C25.3468 20.6211 25.3234 20.6838 25.2978 20.7468C25.2684 20.8235 25.2368 20.8982 25.2052 20.973C25.178 21.0395 25.1483 21.1068 25.1189 21.1736C25.1148 21.1854 25.109 21.1953 25.1049 21.2071C25.0714 21.2778 25.0403 21.3487 25.0068 21.4176C24.973 21.4902 24.938 21.5633 24.9007 21.6359C24.8298 21.7796 24.7531 21.9228 24.6764 22.0627L24.5701 22.2515C24.2672 22.7729 23.9308 23.2629 23.5647 23.7152C23.5155 23.7801 23.4644 23.8428 23.4114 23.9041C23.3385 23.9923 23.2638 24.0791 23.189 24.1635C23.1222 24.2385 23.055 24.313 22.9862 24.3861C22.7977 24.5887 22.6045 24.7813 22.4082 24.9624C22.3687 25.0017 22.3274 25.0372 22.2862 25.0746C22.2192 25.1356 22.1521 25.1947 22.0834 25.2516C22.0301 25.2986 21.9754 25.3442 21.9199 25.389C21.7783 25.5053 21.6368 25.6174 21.4931 25.7216C21.434 25.7671 21.373 25.8101 21.3122 25.8513C21.2138 25.9222 21.1135 25.989 21.0132 26.0543C20.958 26.0915 20.9011 26.1269 20.8439 26.1602C20.6609 26.2743 20.474 26.3787 20.2912 26.471C20.2734 26.4809 20.2577 26.4886 20.2401 26.4966C20.1909 26.5219 20.1417 26.5458 20.0925 26.5694C20.0436 26.593 19.9922 26.6167 19.9389 26.6403C19.874 26.6697 19.8092 26.6972 19.7443 26.7228C19.7185 26.7346 19.6932 26.7445 19.6676 26.7524C19.5909 26.7838 19.5121 26.8135 19.4354 26.839C19.3389 26.8742 19.2406 26.9039 19.1443 26.9314C19.0773 26.9511 19.0086 26.9688 18.9415 26.9844C18.9377 26.9864 18.9338 26.9888 18.9278 26.9888C18.861 27.0042 18.794 27.0201 18.7272 27.0319C18.7096 27.0358 18.6917 27.0399 18.6739 27.0418C18.6189 27.0517 18.5637 27.0613 18.5087 27.0671C18.4298 27.0792 18.3512 27.0891 18.2726 27.0927C18.2451 27.0966 18.2193 27.0985 18.1918 27.0985C18.1289 27.1026 18.0662 27.1043 18.0052 27.1043H17.9994C17.9384 27.1043 17.8774 27.1023 17.8164 27.0985C17.7927 27.0985 17.7691 27.0963 17.7455 27.0927C17.6902 27.0908 17.6333 27.0847 17.5745 27.077C17.5627 27.077 17.5489 27.0751 17.5371 27.0729C17.4643 27.0633 17.3915 27.0515 17.3167 27.0377C17.2538 27.0278 17.1911 27.0141 17.126 26.9984C16.7896 26.9217 16.4433 26.8055 16.0932 26.6502C15.9752 26.5971 15.8554 26.5422 15.737 26.4792C15.5542 26.3886 15.3712 26.2863 15.1901 26.1742C15.0384 26.0816 14.887 25.9834 14.7377 25.879C14.6627 25.8257 14.5882 25.7729 14.5132 25.7177C14.279 25.5465 14.0471 25.3596 13.8187 25.159C13.7558 25.1021 13.6931 25.0449 13.6299 24.9858C13.5669 24.9289 13.5042 24.8701 13.4432 24.8127C13.2896 24.6651 13.1404 24.5117 12.9947 24.3523C12.9378 24.2913 12.8807 24.2284 12.8235 24.1635C12.6663 23.9868 12.5127 23.8037 12.3673 23.613C12.3101 23.544 12.2571 23.4734 12.2038 23.4025C12.0053 23.1387 11.8165 22.8635 11.639 22.5783C11.592 22.5016 11.5447 22.4225 11.4994 22.346C11.4446 22.2534 11.3914 22.1592 11.3381 22.0644C11.1415 21.7104 10.9607 21.3429 10.803 20.9631C10.7793 20.9079 10.7557 20.8529 10.7362 20.7977C10.7046 20.7268 10.6771 20.6539 10.6515 20.5833C10.6122 20.4789 10.5748 20.3747 10.5394 20.2703C10.5039 20.1661 10.4707 20.06 10.4372 19.9534C10.4053 19.8512 10.3759 19.7489 10.3487 19.6448C10.3171 19.5345 10.2876 19.4224 10.2621 19.3081C10.2602 19.2963 10.2563 19.2845 10.2541 19.2729C10.217 19.1157 10.1835 18.9563 10.1538 18.795C10.1145 18.5825 10.0832 18.3662 10.0595 18.1477C10.0496 18.079 10.0436 18.01 10.0378 17.9413C10.0299 17.8685 10.0238 17.7976 10.02 17.725C10.0103 17.5933 10.0043 17.4593 10.0004 17.3257C9.99851 17.2391 9.99658 17.1525 9.99658 17.066V12.2636C9.99658 11.164 10.2187 10.1155 10.6202 9.1613C10.6298 9.13405 10.6416 9.10825 10.6535 9.08293C10.8092 8.7229 10.9901 8.37638 11.1965 8.04601C11.2279 7.99272 11.2614 7.9416 11.2949 7.89048C12.7229 5.70307 15.192 4.25718 17.9992 4.255H18.0069C18.6167 4.255 19.2109 4.32397 19.7814 4.45178C20.3026 4.5697 20.8041 4.73874 21.2804 4.95336C21.9293 5.24466 22.5334 5.61843 23.0762 6.06478C23.5329 6.43855 23.9477 6.85935 24.3096 7.32379C24.4514 7.50465 24.5853 7.69153 24.7109 7.88445C24.7463 7.93774 24.7818 7.99079 24.8134 8.04577C25.0181 8.37421 25.2009 8.71856 25.3562 9.07835L25.3916 9.16106C25.7852 10.0955 26.0053 11.1184 26.0133 12.1925C26.016 12.2163 26.016 12.2402 26.016 12.2636Z" fill="#ECC19C"/>
</g>
<mask id="mask4_16001_363" style="mask-type:luminance" maskUnits="userSpaceOnUse" x="0" y="0" width="37" height="37">
<path d="M0.00012207 18.0004C0.00012207 27.9415 8.05888 36.0002 18 36.0002C27.9414 36.0002 36.0001 27.9415 36.0001 18.0004C35.9999 8.059 27.9411 0 18 0C8.05888 0 0.00012207 8.059 0.00012207 18.0004Z" fill="white"/>
</mask>
<g mask="url(#mask4_16001_363)">
<path d="M19.9688 20.8736C19.9688 20.5384 19.0901 20.2668 18.0064 20.2668C16.9227 20.2668 16.0442 20.5384 16.0442 20.8736C16.0442 21.2085 16.9227 21.48 18.0064 21.48C19.0901 21.4798 19.9688 21.2083 19.9688 20.8736Z" fill="#ECC19C"/>
</g>
<mask id="mask5_16001_363" style="mask-type:luminance" maskUnits="userSpaceOnUse" x="0" y="0" width="37" height="37">
<path d="M0.00012207 18.0004C0.00012207 27.9415 8.05888 36.0002 18 36.0002C27.9414 36.0002 36.0001 27.9415 36.0001 18.0004C35.9999 8.059 27.9411 0 18 0C8.05888 0 0.00012207 8.059 0.00012207 18.0004Z" fill="white"/>
</mask>
<g mask="url(#mask5_16001_363)">
<path d="M24.7689 13.557C24.7689 13.5247 24.7463 13.4965 24.714 13.4926C24.4429 13.4509 23.2218 13.2841 21.9097 13.2841C20.4214 13.2841 18.5004 13.7507 18.165 13.7507H17.8672C17.7119 13.7507 17.2113 13.6501 16.5703 13.5421C15.8346 13.4169 14.9154 13.2843 14.1227 13.2843C13.1615 13.2843 12.2512 13.3752 11.7262 13.4379C11.5328 13.4608 11.3925 13.4818 11.3187 13.4931C11.2862 13.497 11.2635 13.5252 11.2635 13.5575L11.2483 14.3576C11.2483 14.3861 11.2652 14.4107 11.29 14.4223L11.3809 14.4524C11.5157 14.504 11.5044 16.9157 12.223 17.5188C12.6496 17.8733 13.0306 18.0761 14.6325 18.0761C15.5599 18.0761 16.144 17.826 16.6974 17.0789C17.0955 16.5419 17.4502 15.2737 17.4502 15.2737C17.5525 14.7695 17.9183 14.7126 18.0001 14.7049H18.0039H18.0095H18.015C18.0283 14.7049 18.4681 14.7126 18.5822 15.2737C18.5822 15.2737 18.9367 16.5421 19.3345 17.0789C19.8884 17.826 20.4725 18.0761 21.3994 18.0761C23.0016 18.0761 23.3828 17.8733 23.8094 17.5188C24.5278 16.9157 24.5167 14.504 24.6513 14.4524L24.7422 14.4223C24.767 14.4107 24.7839 14.3863 24.7839 14.3576L24.7689 13.557ZM16.6974 16.4107C16.4604 16.9682 15.8536 17.6868 14.9966 17.7305C12.4275 17.8595 12.3096 17.1426 12.1429 16.574C11.9761 16.0051 11.9327 15.5062 11.9987 14.9395C12.065 14.3706 12.2092 14.0369 12.467 13.87C12.577 13.796 12.6983 13.7299 13.0074 13.6824C13.2843 13.6426 13.7108 13.6178 14.422 13.6178C14.8353 13.6178 15.2202 13.6501 15.565 13.7049C16.4789 13.8529 17.0972 14.1637 17.0972 14.469C17.0975 14.6796 17.0444 15.5858 16.6974 16.4107ZM23.8892 16.5737C23.7224 17.1423 23.6047 17.8593 21.0356 17.7303C20.1783 17.6866 19.5699 16.968 19.3345 16.4105C18.9878 15.5855 18.9347 14.6793 18.9347 14.4688C18.9347 14.048 20.1047 13.6176 21.6102 13.6176C23.1137 13.6176 23.3544 13.7297 23.5649 13.8698C23.8227 14.0364 23.9667 14.3702 24.0332 14.9393C24.0998 15.5062 24.0561 16.0049 23.8892 16.5737Z" fill="#1A1A1A"/>
</g>
<mask id="mask6_16001_363" style="mask-type:luminance" maskUnits="userSpaceOnUse" x="0" y="0" width="37" height="37">
<path d="M0.00012207 18.0004C0.00012207 27.9415 8.05888 36.0002 18 36.0002C27.9414 36.0002 36.0001 27.9415 36.0001 18.0004C35.9999 8.059 27.9411 0 18 0C8.05888 0 0.00012207 8.059 0.00012207 18.0004Z" fill="white"/>
</mask>
<g mask="url(#mask6_16001_363)">
<path d="M26.0336 9.15931C26.0316 9.15931 26.0316 9.16123 26.0297 9.16123H9.99683C9.99683 3.49799 13.8132 3.72587 17.9994 4.19224H18.0035C18.3003 4.22576 18.5994 4.25904 18.8984 4.29256C22.0303 4.64053 24.5797 3.28747 25.8566 2.08923C27.5935 3.32678 27.9024 7.89451 26.0336 9.15931Z" fill="#141720"/>
</g>
<mask id="mask7_16001_363" style="mask-type:luminance" maskUnits="userSpaceOnUse" x="0" y="0" width="37" height="37">
<path d="M0.00012207 18.0004C0.00012207 27.9415 8.05888 36.0002 18 36.0002C27.9414 36.0002 36.0001 27.9415 36.0001 18.0004C35.9999 8.059 27.9411 0 18 0C8.05888 0 0.00012207 8.059 0.00012207 18.0004Z" fill="white"/>
</mask>
<g mask="url(#mask7_16001_363)">
<path d="M12.7902 8.82703L12.7471 8.96279C12.7254 9.02959 12.7037 9.09662 12.68 9.16149C12.6605 9.21454 12.6429 9.26735 12.6212 9.31848C12.2534 10.3021 11.6966 11.2032 11.014 12.0096C10.5341 12.5782 10.0521 13.491 10.0029 14.8857C9.999 14.9665 9.99707 15.0471 9.99707 15.1317V12.2636V9.16149L10.6544 9.08288L11.2956 9.00595L12.0511 8.91553L12.7902 8.82703Z" fill="#141720"/>
</g>
<mask id="mask8_16001_363" style="mask-type:luminance" maskUnits="userSpaceOnUse" x="0" y="0" width="37" height="37">
<path d="M0.00012207 18.0004C0.00012207 27.9415 8.05888 36.0002 18 36.0002C27.9414 36.0002 36.0001 27.9415 36.0001 18.0004C35.9999 8.059 27.9411 0 18 0C8.05888 0 0.00012207 8.059 0.00012207 18.0004Z" fill="white"/>
</mask>
<g mask="url(#mask8_16001_363)">
<path d="M26.0557 9.16199L23.2631 8.82849L23.3067 8.96353C23.6679 10.0877 24.2773 11.108 25.0391 12.0104C25.5476 12.6127 26.056 13.5988 26.056 15.1337L26.0557 9.16199Z" fill="#141720"/>
</g>
<mask id="mask9_16001_363" style="mask-type:luminance" maskUnits="userSpaceOnUse" x="0" y="0" width="37" height="37">
<path d="M0.00012207 18.0004C0.00012207 27.9415 8.05888 36.0002 18 36.0002C27.9414 36.0002 36.0001 27.9415 36.0001 18.0004C35.9999 8.059 27.9411 0 18 0C8.05888 0 0.00012207 8.059 0.00012207 18.0004Z" fill="white"/>
</mask>
<g mask="url(#mask9_16001_363)">
<path d="M23.9671 8.82847C23.9671 9.45327 21.2952 9.95967 17.9993 9.95967C14.7034 9.95967 12.0315 9.45303 12.0315 8.82847C12.0315 8.20367 14.7034 7.69751 17.9993 7.69751C21.2952 7.69751 23.9671 8.20391 23.9671 8.82847Z" fill="#141720"/>
</g>
<mask id="mask10_16001_363" style="mask-type:luminance" maskUnits="userSpaceOnUse" x="0" y="0" width="37" height="37">
<path d="M0.00012207 18.0004C0.00012207 27.9415 8.05888 36.0002 18 36.0002C27.9414 36.0002 36.0001 27.9415 36.0001 18.0004C35.9999 8.059 27.9411 0 18 0C8.05888 0 0.00012207 8.059 0.00012207 18.0004Z" fill="white"/>
</mask>
<g mask="url(#mask10_16001_363)">
<path d="M17.9996 23.4374H16.905L17.9996 25.6262L19.0939 23.4374H17.9996Z" fill="#141720"/>
</g>
</g>
<defs>
<clipPath id="clip0_16001_363">
<rect width="36" height="36" fill="white"/>
</clipPath>
</defs>
</svg>
