<svg width="36" height="37" viewBox="0 0 36 37" fill="none" xmlns="http://www.w3.org/2000/svg">
<path d="M19.4851 4.625C20.7763 4.625 21.3478 4.62614 21.8191 4.66834C27.0591 5.13748 31.212 9.29026 31.681 14.5302C31.7233 15.0015 31.7244 15.5731 31.7244 16.8643V18.3493C31.7244 18.9706 32.2281 19.4743 32.8494 19.4743C33.4707 19.4743 33.9744 18.9706 33.9744 18.3493V16.7887C33.9744 15.5933 33.9744 14.914 33.922 14.3296C33.3559 8.00548 28.344 2.99351 22.0198 2.42729C21.4353 2.37497 20.7561 2.37499 19.5606 2.375H18.0001C17.3788 2.375 16.8751 2.87869 16.8751 3.5C16.8751 4.12133 17.3788 4.625 18.0001 4.625H19.4851Z" fill="#FEFFFF"/>
<path fill-rule="evenodd" clip-rule="evenodd" d="M10.6677 6.53795C9.08961 5.08785 6.66389 5.08785 5.08575 6.53795C5.02113 6.59733 4.95213 6.66633 4.86255 6.75594L3.51629 8.10219C2.16162 9.45687 1.59294 11.4098 2.00853 13.2799C4.36649 23.8907 12.6533 32.1774 23.2641 34.5354C25.1343 34.9511 27.0872 34.3825 28.4418 33.0276L29.7879 31.6815C29.8776 31.592 29.9466 31.5228 30.006 31.4582C31.4562 29.88 31.4562 27.4544 30.006 25.8762C29.9466 25.8116 29.8776 25.7426 29.7879 25.6529L27.5841 23.4489C26.054 21.9188 23.7431 21.4812 21.7595 22.346C20.6238 22.841 19.3008 22.5903 18.4248 21.7143L14.8296 18.1192C13.9536 17.2431 13.703 15.9203 14.1981 14.7846C15.0627 12.8009 14.6251 10.4901 13.095 8.95998L10.891 6.75597C10.8014 6.66635 10.7324 6.59733 10.6677 6.53795ZM6.60812 8.19473C7.32545 7.53558 8.42805 7.53558 9.14538 8.19473C9.17015 8.21748 9.20261 8.24957 9.31671 8.36367L11.504 10.551C12.38 11.427 12.6305 12.7499 12.1355 13.8856C11.2708 15.8693 11.7084 18.18 13.2386 19.7102L16.8338 23.3054C18.3639 24.8355 20.6748 25.2732 22.6584 24.4085C23.7941 23.9135 25.1171 24.164 25.9931 25.04L28.1804 27.2273C28.2944 27.3414 28.3265 27.3738 28.3493 27.3986C29.0084 28.1159 29.0084 29.2185 28.3493 29.9358C28.3265 29.9606 28.2944 29.9931 28.1804 30.1071L26.8508 31.4367C26.0402 32.2475 24.8714 32.5877 23.7522 32.339C13.9942 30.1706 6.3734 22.5498 4.20495 12.7918C3.95625 11.6726 4.29657 10.5039 5.10728 9.69318L6.4368 8.36367C6.55089 8.24958 6.58335 8.21748 6.60812 8.19473Z" fill="#FEFFFF"/>
<path d="M19.0607 7.67829C18.4394 7.67829 17.9357 8.18196 17.9357 8.80327C17.9357 9.4246 18.4394 9.92827 19.0607 9.92827H19.9092C19.9256 9.92827 19.9407 9.92827 19.9548 9.92829C20.0534 9.9283 20.0991 9.92839 20.1372 9.92893C23.5866 9.97833 26.3709 12.7626 26.4203 16.212C26.4209 16.2555 26.421 16.3092 26.421 16.44V17.2886C26.421 17.9099 26.9246 18.4136 27.546 18.4136C28.1673 18.4136 28.671 17.9099 28.671 17.2886V16.4291C28.671 16.4145 28.671 16.4007 28.671 16.3875C28.6709 16.295 28.6709 16.2339 28.6701 16.1798C28.6032 11.513 24.8363 7.746 20.1695 7.67916C20.1075 7.67827 20.0366 7.67827 19.92 7.67829H19.0607Z" fill="#FEFFFF"/>
</svg>
