<svg width="32" height="32" viewBox="0 0 32 32" fill="none" xmlns="http://www.w3.org/2000/svg">
<path fill-rule="evenodd" clip-rule="evenodd" d="M12.0493 11.9645C12.5864 8.6814 13.5476 5.34885 14.0156 3.8254C14.6611 3.72105 15.3239 3.66675 16 3.66675C16.6761 3.66675 17.3389 3.72105 17.9844 3.8254C18.4524 5.34885 19.4136 8.68141 19.9507 11.9645C18.5567 12.1896 17.1949 12.3334 16 12.3334C14.8051 12.3334 13.4433 12.1896 12.0493 11.9645ZM21.9177 11.6012C21.4732 8.90129 20.7612 6.19608 20.2475 4.41739C23.1567 5.48467 25.5537 7.61797 26.9633 10.3446C25.6481 10.7232 23.8373 11.2058 21.9177 11.6012ZM22.1913 13.5866C24.3353 13.1503 26.3483 12.607 27.7379 12.2025C28.1243 13.3978 28.3333 14.6737 28.3333 16.0001C28.3333 16.6762 28.2791 17.339 28.1747 17.9845C26.9657 18.3558 24.6115 19.0398 22.0449 19.5749C22.2209 18.3458 22.3333 17.1233 22.3333 16.0001C22.3333 15.2302 22.2805 14.4157 22.1913 13.5866ZM21.6867 21.6867C23.9363 21.2517 26.0864 20.6797 27.5827 20.2474C26.3376 23.6418 23.6417 26.3377 20.2475 27.5827C20.6796 26.0865 21.2516 23.9363 21.6867 21.6867ZM19.5748 22.045C19.0397 24.6116 18.3557 26.9658 17.9844 28.1747C17.3389 28.2791 16.6761 28.3334 16 28.3334C15.3239 28.3334 14.6611 28.2791 14.0156 28.1747C13.6443 26.9658 12.9603 24.6116 12.4252 22.045C13.6543 22.221 14.8768 22.3334 16 22.3334C17.1232 22.3334 18.3457 22.221 19.5748 22.045ZM10.3133 21.6867C10.7484 23.9363 11.3204 26.0865 11.7526 27.5827C8.35831 26.3377 5.66244 23.6418 4.41728 20.2474C5.9136 20.6797 8.06379 21.2517 10.3133 21.6867ZM9.95512 19.5749C7.38855 19.0398 5.03424 18.3558 3.82532 17.9845C3.72097 17.339 3.66667 16.6762 3.66667 16.0001C3.66667 14.6737 3.87569 13.3978 4.26211 12.2025C5.65171 12.607 7.66462 13.1503 9.80872 13.5866C9.71943 14.4157 9.66667 15.2302 9.66667 16.0001C9.66667 17.1233 9.77908 18.3458 9.95512 19.5749ZM10.0822 11.6012C8.16272 11.2058 6.35184 10.7232 5.03664 10.3446C6.44623 7.61797 8.84329 5.48465 11.7526 4.41739C11.2388 6.19608 10.5268 8.90129 10.0822 11.6012ZM11.6667 16.0001C11.6667 15.359 11.7081 14.6679 11.7818 13.9473C13.2255 14.1785 14.6816 14.3334 16 14.3334C17.3184 14.3334 18.7745 14.1785 20.2181 13.9473C20.2919 14.6679 20.3333 15.359 20.3333 16.0001C20.3333 17.1975 20.1888 18.5635 19.9625 19.9626C18.5635 20.1889 17.1975 20.3334 16 20.3334C14.8025 20.3334 13.4365 20.1889 12.0374 19.9626C11.8111 18.5635 11.6667 17.1975 11.6667 16.0001ZM16 1.66675C14.9844 1.66675 13.9924 1.77253 13.0349 1.97401C8.34315 2.96125 4.49981 6.23995 2.72572 10.5836C2.04264 12.256 1.66667 14.0854 1.66667 16.0001C1.66667 17.0157 1.77245 18.0077 1.97393 18.9651C3.13913 24.5027 7.49739 28.8609 13.0349 30.0261C13.9924 30.2277 14.9844 30.3334 16 30.3334C17.0156 30.3334 18.0076 30.2277 18.9651 30.0261C24.5027 28.8609 28.8608 24.5027 30.026 18.9651C30.2276 18.0077 30.3333 17.0157 30.3333 16.0001C30.3333 14.0869 29.958 12.2588 29.2759 10.5875C27.5025 6.24192 23.6583 2.96156 18.9651 1.97403C18.0076 1.77253 17.0156 1.66675 16 1.66675Z" fill="black"/>
</svg>
