<svg width="48" height="48" viewBox="0 0 48 48" fill="none" xmlns="http://www.w3.org/2000/svg">
<path d="M0 24C0 12.6863 0 7.02944 3.51472 3.51472C7.02944 0 12.6863 0 24 0C35.3137 0 40.9706 0 44.4853 3.51472C48 7.02944 48 12.6863 48 24C48 35.3137 48 40.9706 44.4853 44.4853C40.9706 48 35.3137 48 24 48C12.6863 48 7.02944 48 3.51472 44.4853C0 40.9706 0 35.3137 0 24Z" fill="#333F99"/>
<path d="M27.6621 24H31.3242V26.9297C31.3242 28.5456 30.0105 29.8594 28.3945 29.8594H28.0283C27.4195 29.8594 26.9297 30.3492 26.9297 30.958V33.1553C26.9297 33.7641 27.4195 34.2539 28.0283 34.2539H28.3945C32.4412 34.2539 35.7188 30.9763 35.7188 26.9297V15.9434C35.7188 14.7303 34.7346 13.7461 33.5215 13.7461H27.6621C26.449 13.7461 25.4648 14.7303 25.4648 15.9434V21.8027C25.4648 23.0158 26.449 24 27.6621 24Z" fill="#F47A20"/>
<path d="M14.4785 24H18.1406V26.9297C18.1406 28.5456 16.8269 29.8594 15.2109 29.8594H14.8447C14.2359 29.8594 13.7461 30.3492 13.7461 30.958V33.1553C13.7461 33.7641 14.2359 34.2539 14.8447 34.2539H15.2109C19.2576 34.2539 22.5352 30.9763 22.5352 26.9297L22.5352 15.9434C22.5352 14.7303 21.551 13.7461 20.3379 13.7461H14.4785C13.2654 13.7461 12.2813 14.7303 12.2813 15.9434V21.8027C12.2813 23.0158 13.2654 24 14.4785 24Z" fill="#F47A20"/>
</svg>
