<svg width="36" height="37" viewBox="0 0 36 37" fill="none" xmlns="http://www.w3.org/2000/svg">
<path fill-rule="evenodd" clip-rule="evenodd" d="M26.1952 4.0606C24.4821 3.87499 22.3227 3.87499 19.5678 3.875H16.4322C13.6773 3.87499 11.5179 3.87499 9.80472 4.0606C8.05641 4.25002 6.63984 4.64348 5.43036 5.52223C4.69814 6.05422 4.05422 6.69814 3.52223 7.43036C3.27971 7.76416 3.07202 8.11672 2.89481 8.49196C2.35212 9.64106 2.11007 10.9736 1.99209 12.5625C1.875 14.1398 1.875 16.0733 1.875 18.4574V18.5678C1.87499 21.3227 1.87499 23.4821 2.0606 25.1952C2.25002 26.9436 2.64348 28.3601 3.52223 29.5697C4.05422 30.3019 4.69814 30.9458 5.43036 31.4777C6.63984 32.3566 8.05641 32.75 9.80472 32.9395C11.5179 33.125 13.6773 33.125 16.4321 33.125H19.5679C22.3227 33.125 24.4821 33.125 26.1952 32.9395C27.9436 32.75 29.3601 32.3566 30.5697 31.4777C31.3019 30.9458 31.9458 30.3019 32.4777 29.5697C33.3566 28.3601 33.75 26.9436 33.9395 25.1952C34.125 23.4821 34.125 21.3227 34.125 18.5679V18.4563C34.125 16.056 34.125 14.1123 34.0053 12.5286C33.8848 10.9326 33.6372 9.59569 33.0819 8.44319C32.9098 8.08601 32.7098 7.74956 32.4777 7.43036C31.9458 6.69814 31.3019 6.05422 30.5697 5.52223C29.3601 4.64348 27.9436 4.25002 26.1952 4.0606ZM6.75287 7.34252C7.51488 6.78889 8.4902 6.46618 10.0471 6.2975C11.625 6.12655 13.6626 6.125 16.5 6.125H19.5C22.3374 6.125 24.375 6.12655 25.953 6.2975C27.5098 6.46618 28.4852 6.78889 29.2472 7.34252C29.788 7.73554 30.2639 8.21122 30.6569 8.75209L27.8111 11.5979C25.2887 14.1204 23.4751 15.9305 21.9108 17.1241C20.3725 18.2976 19.2084 18.7683 18 18.7683C16.7916 18.7683 15.6274 18.2976 14.0891 17.1241C12.5249 15.9305 10.7114 14.1204 8.18889 11.5979L5.34308 8.75209C5.73618 8.21122 6.21192 7.73554 6.75287 7.34252ZM31.556 11.0351C31.6465 11.5154 31.7137 12.0634 31.7617 12.6981C31.8742 14.1874 31.875 16.0472 31.875 18.5C31.875 21.3374 31.8735 23.375 31.7025 24.953C31.5338 26.5098 31.2111 27.4852 30.6574 28.2472C30.2643 28.7884 29.7884 29.2643 29.2472 29.6574C28.4852 30.2111 27.5098 30.5338 25.953 30.7025C24.375 30.8735 22.3374 30.875 19.5 30.875H16.5C13.6626 30.875 11.625 30.8735 10.0471 30.7025C8.4902 30.5338 7.51488 30.2111 6.75287 29.6574C6.21167 29.2643 5.73573 28.7884 5.34252 28.2472C4.78889 27.4852 4.46618 26.5098 4.2975 24.953C4.12655 23.375 4.125 21.3374 4.125 18.5C4.125 16.0646 4.12571 14.2137 4.23593 12.7291C4.28402 12.0813 4.35196 11.5233 4.44407 11.0351L6.65876 13.2497C9.10716 15.6982 11.0259 17.617 12.7243 18.9128C14.4627 20.2391 16.1018 21.0183 18 21.0183C19.8983 21.0183 21.5373 20.2391 23.2757 18.9128C24.9741 17.617 26.8928 15.6981 29.3412 13.2498L31.556 11.0351Z" fill="#FEFFFF"/>
</svg>
