<svg width="108" height="20" viewBox="0 0 108 20" fill="none" xmlns="http://www.w3.org/2000/svg">
<path d="M9.83623 1.10462C9.91587 0.991025 10.0841 0.991027 10.1638 1.10461L13.0203 5.17929C13.1738 5.39815 13.3959 5.55952 13.6514 5.63781L18.4094 7.09542C18.542 7.13606 18.594 7.29609 18.5106 7.40692L15.5181 11.3828C15.3574 11.5964 15.2725 11.8575 15.277 12.1247L15.3611 17.1003C15.3634 17.239 15.2273 17.3379 15.0961 17.2928L10.39 15.6753L10.2386 16.1159L10.39 15.6753C10.1373 15.5885 9.86273 15.5885 9.60996 15.6753L4.90391 17.2928C4.77272 17.3379 4.63659 17.239 4.63894 17.1003L4.72295 12.1247C4.72747 11.8575 4.64263 11.5964 4.4819 11.3828L1.48938 7.40692C1.40596 7.29609 1.45796 7.13606 1.59059 7.09543L6.34857 5.63781C6.60412 5.55952 6.82623 5.39815 6.97966 5.17929L9.83623 1.10462Z" stroke="#F47A20"/>
<path d="M31.4268 0.817594C31.7055 0.420034 32.2945 0.420033 32.5732 0.817593L35.4298 4.89227C35.5193 5.01994 35.6488 5.11407 35.7979 5.15974L40.5559 6.61736C41.0201 6.75957 41.2021 7.31968 40.9101 7.7076L37.9176 11.6835C37.8238 11.8081 37.7743 11.9604 37.777 12.1163L37.861 17.0918C37.8692 17.5773 37.3927 17.9234 36.9336 17.7656L32.2275 16.1482C32.0801 16.0975 31.9199 16.0975 31.7725 16.1482L27.0664 17.7656C26.6073 17.9234 26.1308 17.5773 26.139 17.0918L26.223 12.1163C26.2257 11.9604 26.1762 11.8081 26.0824 11.6835L23.0899 7.70761C22.7979 7.31968 22.9799 6.75957 23.4441 6.61736L28.2021 5.15974C28.3512 5.11407 28.4807 5.01994 28.5702 4.89227L31.4268 0.817594Z" fill="#F47A20"/>
<path d="M53.4268 0.817594C53.7055 0.420034 54.2945 0.420033 54.5732 0.817593L57.4298 4.89227C57.5193 5.01994 57.6488 5.11407 57.7979 5.15974L62.5559 6.61736C63.0201 6.75957 63.2021 7.31968 62.9101 7.7076L59.9176 11.6835C59.8238 11.8081 59.7743 11.9604 59.777 12.1163L59.861 17.0918C59.8692 17.5773 59.3927 17.9234 58.9336 17.7656L54.2275 16.1482C54.0801 16.0975 53.9199 16.0975 53.7725 16.1482L49.0664 17.7656C48.6073 17.9234 48.1308 17.5773 48.139 17.0918L48.223 12.1163C48.2257 11.9604 48.1762 11.8081 48.0824 11.6835L45.0899 7.70761C44.7979 7.31968 44.9799 6.75957 45.4441 6.61736L50.2021 5.15974C50.3512 5.11407 50.4807 5.01994 50.5702 4.89227L53.4268 0.817594Z" fill="#F47A20"/>
<path d="M75.4268 0.817594C75.7055 0.420034 76.2945 0.420033 76.5732 0.817593L79.4298 4.89227C79.5193 5.01994 79.6488 5.11407 79.7979 5.15974L84.5559 6.61736C85.0201 6.75957 85.2021 7.31968 84.9101 7.7076L81.9176 11.6835C81.8238 11.8081 81.7743 11.9604 81.777 12.1163L81.861 17.0918C81.8692 17.5773 81.3927 17.9234 80.9336 17.7656L76.2275 16.1482C76.0801 16.0975 75.9199 16.0975 75.7725 16.1482L71.0664 17.7656C70.6073 17.9234 70.1308 17.5773 70.139 17.0918L70.223 12.1163C70.2257 11.9604 70.1762 11.8081 70.0824 11.6835L67.0899 7.70761C66.7979 7.31968 66.9799 6.75957 67.4441 6.61736L72.2021 5.15974C72.3512 5.11407 72.4807 5.01994 72.5702 4.89227L75.4268 0.817594Z" fill="#F47A20"/>
<path d="M97.4268 0.817594C97.7055 0.420034 98.2945 0.420033 98.5732 0.817593L101.43 4.89227C101.519 5.01994 101.649 5.11407 101.798 5.15974L106.556 6.61736C107.02 6.75957 107.202 7.31968 106.91 7.7076L103.918 11.6835C103.824 11.8081 103.774 11.9604 103.777 12.1163L103.861 17.0918C103.869 17.5773 103.393 17.9234 102.934 17.7656L98.2275 16.1482C98.0801 16.0975 97.9199 16.0975 97.7725 16.1482L93.0664 17.7656C92.6073 17.9234 92.1308 17.5773 92.139 17.0918L92.223 12.1163C92.2257 11.9604 92.1762 11.8081 92.0824 11.6835L89.0899 7.70761C88.7979 7.31968 88.9799 6.75957 89.4441 6.61736L94.2021 5.15974C94.3512 5.11407 94.4807 5.01994 94.5702 4.89227L97.4268 0.817594Z" fill="#F47A20"/>
</svg>
