<svg width="20" height="18" viewBox="0 0 20 18" fill="none" xmlns="http://www.w3.org/2000/svg">
<path d="M9.42682 0.817594C9.70553 0.420034 10.2945 0.420033 10.5732 0.817593L13.4298 4.89227C13.5193 5.01994 13.6488 5.11407 13.7979 5.15974L18.5559 6.61736C19.0201 6.75957 19.2021 7.31968 18.9101 7.70761L15.9176 11.6835C15.8238 11.8081 15.7743 11.9604 15.777 12.1163L15.861 17.0918C15.8692 17.5773 15.3927 17.9234 14.9336 17.7656L10.2275 16.1482C10.0801 16.0975 9.91993 16.0975 9.77248 16.1482L5.06643 17.7656C4.60727 17.9234 4.13081 17.5773 4.13901 17.0918L4.22302 12.1163C4.22566 11.9604 4.17617 11.8081 4.08241 11.6835L1.08989 7.70761C0.797915 7.31968 0.979905 6.75957 1.44413 6.61736L6.20211 5.15974C6.35119 5.11407 6.48075 5.01994 6.57025 4.89227L9.42682 0.817594Z" fill="black"/>
</svg>
