<svg width="101" height="100" viewBox="0 0 101 100" fill="none" xmlns="http://www.w3.org/2000/svg">
<g filter="url(#filter0_b_12019_17875)">
<path d="M0.5 50C0.5 22.3858 22.8858 0 50.5 0C78.1142 0 100.5 22.3858 100.5 50C100.5 77.6142 78.1142 100 50.5 100C22.8858 100 0.5 77.6142 0.5 50Z" fill="#FEFFFF" fill-opacity="0.4"/>
<path d="M69.318 44.7059C70.2786 45.2167 71.0821 45.9793 71.6424 46.9119C72.2027 47.8444 72.4988 48.9119 72.4988 49.9999C72.4988 51.0879 72.2027 52.1553 71.6424 53.0879C71.0821 54.0205 70.2786 54.7831 69.318 55.2939L43.694 69.2279C39.568 71.4739 34.5 68.5539 34.5 63.9359V36.0659C34.5 31.4459 39.568 28.5279 43.694 30.7699L69.318 44.7059Z" fill="#333F99"/>
</g>
<defs>
<filter id="filter0_b_12019_17875" x="-19.5" y="-20" width="140" height="140" filterUnits="userSpaceOnUse" color-interpolation-filters="sRGB">
<feFlood flood-opacity="0" result="BackgroundImageFix"/>
<feGaussianBlur in="BackgroundImageFix" stdDeviation="10"/>
<feComposite in2="SourceAlpha" operator="in" result="effect1_backgroundBlur_12019_17875"/>
<feBlend mode="normal" in="SourceGraphic" in2="effect1_backgroundBlur_12019_17875" result="shape"/>
</filter>
</defs>
</svg>
